<svg width="28" height="27" viewBox="0 0 28 27" fill="none" xmlns="http://www.w3.org/2000/svg">
<path d="M10.3249 0.418701H2.3369C1.56565 0.418701 0.94043 1.04392 0.94043 1.81518V9.80306C0.94043 10.5743 1.56565 11.1995 2.3369 11.1995H10.3249C11.0961 11.1995 11.7213 10.5743 11.7213 9.80306V1.81518C11.7213 1.04392 11.0961 0.418701 10.3249 0.418701Z" fill="#2CC295"/>
<path d="M24.1499 0.418701H16.1621C15.3908 0.418701 14.7656 1.04392 14.7656 1.81518V9.80306C14.7656 10.5743 15.3908 11.1995 16.1621 11.1995H24.1499C24.9211 11.1995 25.5464 10.5743 25.5464 9.80306V1.81518C25.5464 1.04392 24.9211 0.418701 24.1499 0.418701Z" fill="#03624C"/>
<path d="M10.3249 13.937H2.3369C1.56565 13.937 0.94043 14.5622 0.94043 15.3335V23.3214C0.94043 24.0926 1.56565 24.7178 2.3369 24.7178H10.3249C11.0961 24.7178 11.7213 24.0926 11.7213 23.3214V15.3335C11.7213 14.5622 11.0961 13.937 10.3249 13.937Z" fill="#03624C"/>
<path d="M19.1672 13.4295L14.2497 18.347C13.7043 18.8924 13.7043 19.7766 14.2497 20.3219L19.1672 25.2395C19.7126 25.7849 20.5968 25.7849 21.1422 25.2395L26.0597 20.322C26.605 19.7766 26.605 18.8924 26.0597 18.3471L21.1421 13.4295C20.5967 12.8841 19.7125 12.8841 19.1672 13.4295Z" fill="#2CC295"/>
</svg>
