<svg width="7" height="7" viewBox="0 0 7 7" fill="none" xmlns="http://www.w3.org/2000/svg">
<path d="M0 4.53406C0.0311393 4.41674 0.0784404 4.30938 0.172363 4.22606C0.317624 4.09713 0.490991 4.08531 0.676817 4.09928V6.12388C0.500585 6.08718 0.355151 6.00355 0.234633 5.8768C0.115462 5.7514 0.0415761 5.60236 0.0124566 5.43134C0.00993178 5.41636 0.00420664 5.40188 0.000166944 5.38706C0.000166944 5.1026 0 4.81835 0 4.53406Z" fill="#E0E6E6"/>
<path d="M4.60425 1.99222C4.60425 2.20986 4.60728 2.42746 4.60273 2.6451C4.60105 2.72875 4.58977 2.81396 4.56974 2.89526C4.49602 3.19503 4.2836 3.37546 3.95907 3.39886C3.73352 3.41502 3.50646 3.41297 3.28024 3.41314C3.03836 3.41348 2.79531 3.41969 2.55461 3.40051C2.12893 3.3665 1.90169 3.12467 1.88436 2.6941C1.87274 2.40812 1.87914 2.12131 1.87796 1.83483C1.87729 1.65052 1.87863 1.46622 1.87711 1.28191C1.87678 1.24622 1.88604 1.22415 1.92105 1.21102C1.98753 1.18628 2.05065 1.14959 2.11882 1.13376C2.1976 1.11559 2.21881 1.07865 2.22016 0.99836C2.2274 0.567628 2.51001 0.18982 2.91734 0.0538167C3.57716 -0.166515 4.25548 0.316359 4.26542 1.01624C4.26626 1.07919 4.28141 1.10928 4.34504 1.12544C4.41539 1.14329 4.48121 1.17813 4.54989 1.20321C4.59315 1.21904 4.60846 1.24496 4.60796 1.29259C4.60527 1.52572 4.60678 1.75909 4.60678 1.99222H4.60425ZM2.56522 1.02815H3.91902C3.94561 0.669462 3.6216 0.343594 3.24237 0.343426C2.86314 0.343426 2.53947 0.668621 2.56522 1.02815Z" fill="#E0E6E6"/>
<path d="M5.80624 6.12337V4.10659C6.21695 4.03034 6.47582 4.29311 6.48323 4.59406C6.48929 4.83813 6.48862 5.0827 6.48289 5.32677C6.47431 5.68849 6.21425 6.01471 5.86683 6.10981C5.84832 6.11486 5.82914 6.11832 5.80624 6.12337Z" fill="#E0E6E6"/>
<path d="M5.62867 2.8601C5.62698 2.44687 5.48829 2.0761 5.23463 1.75108C5.154 1.64789 5.05772 1.55695 4.96851 1.46034C4.96211 1.46438 4.95555 1.46832 4.94915 1.47236V1.54314C4.94915 1.87641 4.95134 2.20968 4.94797 2.54296C4.94679 2.65573 4.93973 2.76986 4.92071 2.88095C4.86079 3.23106 4.6896 3.50699 4.34993 3.64417C4.21628 3.6982 4.06833 3.73721 3.92526 3.7431C3.54149 3.75892 3.1567 3.75512 2.77225 3.75512C2.6615 3.75512 2.54957 3.74915 2.44033 3.73232C2.01431 3.66633 1.71335 3.44373 1.59586 3.01687C1.55867 2.88154 1.54134 2.73709 1.53831 2.59638C1.53023 2.24324 1.53544 1.8897 1.53544 1.53656V1.45325C1.10875 1.8281 0.865527 2.27853 0.858794 2.82691C0.845833 3.88212 0.852726 4.93766 0.855082 5.9932C0.855924 6.35862 1.10437 6.68115 1.45549 6.78837C1.5038 6.80318 1.55328 6.81431 1.60226 6.8271H4.88267C4.89496 6.82289 4.9069 6.81696 4.91953 6.81477C5.32737 6.74492 5.62866 6.40009 5.62984 5.98652C5.6327 4.94445 5.63287 3.90217 5.62867 2.8601Z" fill="#E0E6E6"/>
</svg>
