<svg width="31" height="31" viewBox="0 0 31 31" fill="none" xmlns="http://www.w3.org/2000/svg">
<path d="M30.4299 13.803C30.4299 13.9706 30.4299 14.0823 30.4299 14.2219C30.4299 18.8023 30.4299 23.3827 30.4299 27.9632C30.4299 29.7786 29.2848 30.9237 27.4694 30.9237C19.314 30.9237 11.1306 30.9237 2.97517 30.9237C1.15975 30.9237 0.0146484 29.7786 0.0146484 27.9632C0.0146484 23.3827 0.0146484 18.8023 0.0146484 14.2219C0.0146484 14.0823 0.0146484 13.9426 0.0146484 13.803H30.4299ZM13.5883 22.7683C12.8063 21.9304 12.1081 21.1764 11.382 20.4223C10.8792 19.9195 10.1531 19.9195 9.70627 20.3663C9.2594 20.8132 9.28724 21.5394 9.78997 22.0421C10.7675 23.0476 11.773 24.0251 12.7505 25.0026C13.2812 25.5333 13.9515 25.5333 14.5101 25.0026C16.521 22.9917 18.5599 20.9808 20.5429 18.942C20.6826 18.8023 20.7942 18.551 20.8222 18.3275C20.9059 17.8248 20.6267 17.3779 20.1798 17.1545C19.733 16.931 19.2581 17.0148 18.8671 17.4058C17.5823 18.6626 16.3255 19.9195 15.0407 21.1763C14.5659 21.6511 14.1191 22.126 13.5606 22.7125L13.5883 22.7683Z" fill="#2CC295"/>
<path d="M0.0146484 11.4007C0.0146484 10.2276 0.0146484 9.08254 0.0146484 7.93743C0.0146484 6.93197 0.0146484 5.92649 0.0146484 4.94896C0.0146484 3.27319 1.18774 2.10015 2.86351 2.07222C3.45003 2.07222 4.0644 2.07222 4.70678 2.07222C4.70678 1.54156 4.70691 1.06676 5.18171 0.759531C5.40514 0.619884 5.68432 0.536133 5.93569 0.536133C6.63392 0.536133 6.96917 1.01087 7.08089 2.04426H14.0633C14.0633 1.56946 14.0632 1.06678 14.5101 0.787488C14.7335 0.647841 15.0407 0.536133 15.32 0.536133C16.0182 0.536133 16.3813 1.0388 16.4372 2.04426H23.4475C23.4196 1.56946 23.4475 1.06676 23.9223 0.759531C24.1457 0.619884 24.453 0.536133 24.7044 0.536133C25.3747 0.536133 25.7098 1.0109 25.8215 2.07222C26.2125 2.07222 26.6314 2.07222 27.0504 2.07222C27.4693 2.07222 27.9163 2.07222 28.3352 2.15601C29.4803 2.37944 30.4299 3.38489 30.4579 4.58586C30.5137 6.84815 30.4579 9.11044 30.4579 11.4007H0.0426052H0.0146484Z" fill="#03624C"/>
<path d="M13.5881 22.7685C14.1747 22.182 14.6216 21.6793 15.0685 21.2324C16.3253 19.9756 17.6101 18.7187 18.8948 17.4619C19.2579 17.0988 19.7605 17.015 20.2074 17.2106C20.6543 17.434 20.9337 17.8529 20.8499 18.3835C20.822 18.607 20.7102 18.8304 20.5705 18.998C18.5596 21.0369 16.5487 23.0478 14.5378 25.0587C14.0072 25.5894 13.3368 25.5894 12.7782 25.0587C11.7728 24.0812 10.7953 23.0757 9.81773 22.0982C9.315 21.5955 9.28699 20.8693 9.73386 20.4224C10.1807 19.9756 10.907 19.9755 11.4097 20.4783C12.1359 21.2044 12.8341 21.9864 13.6161 22.8243L13.5881 22.7685Z" fill="#03624C"/>
</svg>
