<svg width="24" height="24" viewBox="0 0 24 24" fill="none" xmlns="http://www.w3.org/2000/svg">
<path d="M16.5471 0.416003C17.8171 0.802533 18.2589 1.38232 18.2589 2.65235C18.2589 3.50824 18.2589 4.33647 18.2589 5.19236C18.2589 5.49606 18.1762 5.57893 17.8725 5.57893C13.2065 5.57893 8.56814 5.57893 3.90217 5.57893C3.81934 5.57893 3.7088 5.49599 3.62598 5.46838C3.7088 5.41317 3.76407 5.33032 3.8469 5.2751C7.68459 3.70137 11.5499 2.15538 15.3876 0.581652C15.5532 0.498824 15.7465 0.471195 15.9398 0.388367C16.1607 0.388367 16.3539 0.388367 16.5747 0.388367L16.5471 0.416003Z" fill="#03624C"/>
<path d="M10.6666 6.87646C13.8416 6.87646 17.0444 6.87646 20.2195 6.87646C21.241 6.87646 22.0141 7.37338 22.2902 8.20166C22.373 8.42253 22.4005 8.67104 22.4005 8.91953C22.4005 9.83063 22.4005 10.7417 22.4005 11.6528C22.4005 11.9841 22.3178 12.067 21.9589 12.067C20.5508 12.067 19.1428 12.067 17.7071 12.067C16.6303 12.067 15.8296 12.6468 15.5811 13.5579C15.5259 13.7235 15.5258 13.9168 15.5258 14.1101C15.5258 14.9108 15.5258 15.739 15.5258 16.5397C15.5258 17.7269 16.4094 18.5551 17.6794 18.5551C19.1151 18.5551 20.5508 18.5551 21.9589 18.5551C22.2902 18.5551 22.3731 18.638 22.3731 18.9694C22.3731 19.8805 22.3731 20.8192 22.3731 21.7303C22.3731 22.9451 21.4895 23.7733 20.2195 23.7733C14.3387 23.7733 8.45783 23.7733 2.54943 23.7733C1.27941 23.7733 0.395996 22.9451 0.395996 21.7303C0.395996 16.8987 0.395996 12.0947 0.395996 7.26304C0.395996 6.93172 0.451282 6.87646 0.810203 6.87646C4.0681 6.87646 7.35357 6.87646 10.6115 6.87646H10.6666Z" fill="#2CC295"/>
<path d="M20.3566 17.2576C19.5007 17.2576 18.6172 17.2576 17.7614 17.2576C17.1816 17.2576 16.9331 17.0366 16.9331 16.4844C16.9331 15.6838 16.9331 14.9107 16.9331 14.1101C16.9331 13.6131 17.2093 13.3646 17.7062 13.3646C19.4732 13.3646 21.2402 13.3646 23.0072 13.3646C23.5042 13.3646 23.7802 13.6131 23.7802 14.0824C23.7802 14.8831 23.7802 15.7114 23.7802 16.5121C23.7802 16.9814 23.5318 17.23 23.0072 17.2576C22.1237 17.2576 21.2401 17.2576 20.3566 17.2576Z" fill="#03624C"/>
</svg>
