<svg width="22" height="18" viewBox="0 0 22 18" fill="none" xmlns="http://www.w3.org/2000/svg">
<path d="M0.252441 15.8989C0.252441 12.4293 0.252441 8.98709 0.252441 5.51742C0.252441 5.51742 0.252384 5.49 0.279921 5.46246C0.555291 4.19576 1.43652 3.45214 2.73076 3.45214C3.5844 3.45214 4.41047 3.45214 5.26411 3.45214C5.34673 3.45214 5.40187 3.45214 5.51202 3.45214C5.51202 3.20431 5.51202 2.98399 5.51202 2.73616C5.51202 1.44192 6.39315 0.560791 7.68739 0.560791C9.83527 0.560791 12.0107 0.560791 14.1586 0.560791C14.3514 0.560791 14.5717 0.560845 14.7644 0.615919C15.7282 0.891289 16.3341 1.66233 16.3341 2.6812C16.3341 2.92903 16.3341 3.17675 16.3341 3.42458C16.4442 3.42458 16.4993 3.42458 16.5819 3.42458C17.4355 3.42458 18.3167 3.42458 19.1704 3.42458C20.5747 3.42458 21.5936 4.44346 21.5936 5.84785C21.5936 6.4812 21.5936 7.11456 21.5936 7.74791C21.5936 10.3089 21.5936 12.8975 21.5936 15.4584C21.5936 16.0092 21.4559 16.5048 21.1255 16.9454C20.6298 17.6338 19.9139 17.9091 19.0878 17.9091C13.6354 17.9091 8.21065 17.9091 2.75832 17.9091C2.67571 17.9091 2.56554 17.9091 2.48293 17.9091C1.57421 17.854 0.91332 17.4135 0.500264 16.5874C0.390116 16.3671 0.335052 16.0916 0.252441 15.8438V15.8989ZM10.9367 15.8989C13.8006 15.8989 16.1413 13.5307 16.1413 10.6944C16.1413 7.83054 13.773 5.48986 10.9367 5.48986C8.04535 5.48986 5.70474 7.85811 5.73228 10.722C5.73228 13.5858 8.10042 15.9265 10.9367 15.8989Z" fill="#2CC295"/>
<path d="M10.9088 7.11426C8.92616 7.11426 7.30142 8.73894 7.32896 10.7216C7.32896 12.7043 8.95369 14.3014 10.9088 14.3014C12.8915 14.3014 14.4886 12.6767 14.4886 10.7216C14.4886 8.73894 12.8639 7.14182 10.9088 7.14182V7.11426Z" fill="#03624C"/>
</svg>
