<svg width="5" height="8" viewBox="0 0 5 8" fill="none" xmlns="http://www.w3.org/2000/svg">
<path d="M4.17814 4.6902C4.13404 4.31703 4.09196 3.94365 4.05224 3.56998C3.97532 2.84923 3.37525 2.21516 2.65551 2.13251C2.33839 2.09599 2.01438 2.10343 1.69406 2.11269C0.902452 2.13575 0.21369 2.78765 0.131045 3.57522C0.0933407 3.93526 0.0552971 4.29546 0.0105238 4.65465C-0.0648839 5.25943 0.270582 5.83376 0.836139 6.05544C0.954805 6.1019 1.07767 6.12442 1.20274 6.13486V6.14513H2.82467C2.82602 6.14513 2.82838 6.14599 2.82955 6.14616C2.83393 6.14632 2.83797 6.14513 2.84218 6.14513H2.942V6.13763C3.67604 6.09942 4.26583 5.43098 4.17814 4.6902Z" fill="#2CB588"/>
<path d="M2.62031 5.68392C2.62031 5.94734 2.62099 6.21074 2.62015 6.47416C2.61914 6.79178 2.39257 7.02529 2.08892 7.02327C1.78981 7.02125 1.56713 6.78796 1.56679 6.47354C1.56612 5.9467 1.56595 5.41981 1.56679 4.89297C1.56747 4.58006 1.79319 4.3481 2.09381 4.34827C2.39426 4.34827 2.61897 4.58054 2.62015 4.89379C2.62116 5.15721 2.62031 5.4205 2.62031 5.68392Z" fill="#03624C"/>
<path d="M2.0916 0.0891127C1.60953 0.0901226 1.21683 0.481672 1.21582 0.962564C1.21464 1.44531 1.61172 1.84203 2.09531 1.84136C2.57553 1.84068 2.96905 1.44746 2.97107 0.96657C2.97309 0.483153 2.57704 0.0882711 2.0916 0.0891127Z" fill="#2CB588"/>
<path d="M2.0915 1.75468e-06C2.62659 -0.00100817 3.06254 0.434067 3.06035 0.966633C3.05816 1.49668 2.62458 1.92975 2.09538 1.93059C1.56264 1.93127 1.12517 1.49431 1.12635 0.962421C1.12752 0.432548 1.56028 0.00118 2.0915 1.75468e-06ZM2.0942 0.527339C1.85064 0.527003 1.65403 0.721543 1.65353 0.963757C1.65302 1.20412 1.85165 1.40316 2.09251 1.40367C2.33321 1.40417 2.53266 1.20597 2.53334 0.965606C2.53401 0.723897 2.33759 0.527676 2.0942 0.527339Z" fill="#03624C"/>
<path d="M0.59394 0.613289C0.651337 0.613289 0.708906 0.612447 0.766303 0.613289C0.928228 0.616151 1.03646 0.725553 1.03915 0.888824C1.04 0.940835 1.04016 0.992867 1.03915 1.04488C1.03579 1.1994 0.933105 1.30902 0.777745 1.31558C0.657564 1.32063 0.536711 1.32123 0.41653 1.31517C0.216397 1.30507 0.0677682 1.14685 0.0728178 0.957656C0.0780357 0.761058 0.231887 0.615646 0.437912 0.613289C0.489923 0.612616 0.541929 0.613289 0.59394 0.613289Z" fill="#03624C"/>
<path d="M3.59376 0.613496C3.65115 0.613496 3.70872 0.612187 3.76612 0.613702C3.95313 0.61892 4.09703 0.755888 4.11285 0.942556C4.12766 1.11727 3.9989 1.28777 3.81728 1.30696C3.67135 1.32227 3.52189 1.32098 3.37528 1.31004C3.24012 1.30011 3.15175 1.18844 3.14788 1.05176C3.14619 0.991672 3.14586 0.931246 3.14788 0.871155C3.15326 0.726736 3.26065 0.619191 3.40491 0.613805C3.46769 0.611448 3.53081 0.613496 3.59376 0.613496Z" fill="#03624C"/>
</svg>
