<svg width="8" height="8" viewBox="0 0 8 8" fill="none" xmlns="http://www.w3.org/2000/svg">
<path d="M3.58763 0C3.74147 0 3.89552 0 4.04937 0C4.06839 0.00420802 4.0874 0.0108133 4.10659 0.0123282C4.67955 0.0554183 5.21784 0.2155 5.71136 0.509051C6.72549 1.11214 7.34724 1.9944 7.56572 3.15632C7.59181 3.29468 7.60514 3.43546 7.62433 3.57517V4.03686C7.62012 4.06076 7.61541 4.0845 7.61154 4.10857C7.58091 4.30433 7.56372 4.50327 7.51811 4.69549C6.97594 6.98196 4.50685 8.23859 2.34377 7.33218C0.692876 6.64055 -0.24503 4.92678 0.0557591 3.15201C0.31531 1.62079 1.5318 0.373184 3.05813 0.0764347C3.23285 0.0424339 3.41123 0.0249115 3.58763 0ZM3.22102 4.68286C3.19846 4.66367 3.18333 4.65102 3.16852 4.63806C2.87244 4.37717 2.5767 4.11582 2.28012 3.85543C2.08251 3.68189 1.80531 3.69343 1.64019 3.8806C1.47372 4.06946 1.49342 4.34269 1.69053 4.51858C2.10712 4.89057 2.52468 5.26139 2.94363 5.63069C3.15286 5.81517 3.41931 5.79559 3.60396 5.5862C4.3035 4.79324 5.0029 4.0002 5.70227 3.20707C5.79097 3.10658 5.87868 3.00522 5.96789 2.90524C6.14261 2.70914 6.13535 2.43481 5.94986 2.26582C5.76437 2.09682 5.4846 2.11358 5.31157 2.30917C4.82159 2.86328 4.33347 3.41907 3.84467 3.97419C3.63814 4.20883 3.43176 4.4435 3.22102 4.68286Z" fill="#2CB588"/>
<path d="M3.22128 4.68277C3.43202 4.44358 3.63876 4.20895 3.84529 3.97431C4.33409 3.41919 4.82221 2.8634 5.31219 2.30928C5.48505 2.1137 5.76482 2.09683 5.95048 2.26583C6.1358 2.43465 6.14317 2.70909 5.96846 2.90535C5.87925 3.00533 5.79137 3.1066 5.70284 3.20708C5.00346 4.00021 4.30412 4.79336 3.60458 5.58632C3.41993 5.79571 3.15348 5.81528 2.94425 5.6308C2.5253 5.26151 2.10769 4.89052 1.69109 4.5187C1.49399 4.3428 1.47429 4.06957 1.64075 3.88072C1.80571 3.69354 2.08296 3.6819 2.28074 3.85544C2.57732 4.11583 2.87306 4.37728 3.16914 4.63818C3.18395 4.65114 3.19872 4.66358 3.22128 4.68277Z" fill="#03624C"/>
</svg>
