<svg width="20" height="18" viewBox="0 0 20 18" fill="none" xmlns="http://www.w3.org/2000/svg">
<path d="M10.8102 0.754988L13.0416 5.27363C13.1532 5.49677 13.3764 5.6642 13.6274 5.69209L18.5923 6.41734C19.2338 6.50101 19.4849 7.30985 19.0386 7.75614L15.4403 11.2707C15.2451 11.438 15.1615 11.717 15.2173 11.968L16.0541 16.933C16.1656 17.5746 15.4961 18.0485 14.9104 17.7696L10.4755 15.4267C10.2523 15.3151 9.97338 15.3151 9.75024 15.4267L5.31536 17.7696C4.72961 18.0764 4.06008 17.5746 4.17165 16.933L5.00841 11.968C5.06419 11.717 4.98064 11.4659 4.78539 11.2707L1.18709 7.75614C0.712909 7.30985 0.991934 6.50101 1.63347 6.41734L6.59833 5.69209C6.84936 5.6642 7.07257 5.49677 7.18414 5.27363L9.41554 0.754988C9.69447 0.169236 10.5313 0.169236 10.8102 0.754988Z" fill="#00DF82"/>
</svg>
