<svg width="19" height="18" viewBox="0 0 19 18" fill="none" xmlns="http://www.w3.org/2000/svg">
<path d="M9.16554 0.503906V15.4824L4.86992 17.7415C4.28417 18.0484 3.61482 17.5465 3.72639 16.905L4.56314 11.9399C4.61893 11.6889 4.50731 11.4379 4.33995 11.2426L0.741823 7.72808C0.267643 7.28179 0.546498 6.50087 1.18804 6.41719L6.15306 5.69195C6.4041 5.63617 6.6273 5.46871 6.73887 5.24557L8.94235 0.726927C8.94235 0.726927 9.08184 0.531799 9.13762 0.503906H9.16554Z" fill="#00DF82"/>
<path d="M14.9941 11.2426C14.7988 11.4378 14.7153 11.6889 14.7711 11.9399L15.6078 16.9049C15.7194 17.5465 15.0499 18.0204 14.492 17.7415L10.0292 15.3986C9.80608 15.2591 9.55502 15.2591 9.30398 15.3986L9.16455 15.4824V0.503866C9.55505 0.197043 10.1408 0.2806 10.3639 0.726887L12.5953 5.24553C12.7069 5.46867 12.9301 5.63613 13.1811 5.69191L18.146 6.41715C18.7875 6.50083 19.0386 7.28175 18.5645 7.72804L14.9662 11.2426H14.9941Z" fill="#03624C"/>
</svg>
