<svg width="17" height="23" viewBox="0 0 17 23" fill="none" xmlns="http://www.w3.org/2000/svg">
<path d="M8.0901 22.4866C7.89485 22.3472 7.69959 22.2078 7.53223 22.0404C5.71919 19.9206 4.0456 17.6891 2.62306 15.2625C1.81417 13.8399 1.08896 12.3894 0.670568 10.7995C0.00113718 8.42859 0.307961 6.19714 1.67471 4.16096C2.98568 2.23635 4.82661 1.0649 7.14173 0.730184C9.42895 0.423362 11.4651 0.98118 13.2503 2.43161C14.8123 3.71469 15.7606 5.36043 16.0675 7.36872C16.3185 8.93072 16.0117 10.409 15.4817 11.8594C14.7565 13.8119 13.7245 15.5971 12.5808 17.2986C11.493 18.9443 10.2657 20.5063 8.95477 22.0125C8.81531 22.1799 8.59215 22.3193 8.3969 22.4587H8.0622L8.0901 22.4866Z" fill="#2CC295"/>
<path d="M8.22967 12.5289C10.3774 12.5568 12.1905 10.7996 12.2184 8.59611C12.2463 6.42046 10.489 4.60738 8.28547 4.5516C6.10982 4.5237 4.29678 6.28088 4.26888 8.48443C4.24099 10.688 5.99824 12.4731 8.22967 12.501V12.5289Z" fill="#03624C"/>
</svg>
