<svg width="23" height="19" viewBox="0 0 23 19" fill="none" xmlns="http://www.w3.org/2000/svg">
<path d="M6.44513 17.8223C5.83148 17.6828 5.24573 17.5433 4.65998 17.3759C3.37691 17.0691 2.12174 16.7624 0.838662 16.4277C0.225017 16.2882 0.0297852 16.0372 0.0297852 15.3956C0.0297852 10.6817 0.0297852 5.96781 0.0297852 1.2539C0.0297852 0.500793 0.448147 0.166058 1.17336 0.361308C2.84694 0.779702 4.52052 1.19816 6.1941 1.64444C6.27778 1.64444 6.33357 1.70011 6.41725 1.70011V17.7665L6.44513 17.8223Z" fill="#03624C"/>
<path d="M16.0962 16.6509V0.556641C16.5146 0.668212 16.933 0.75185 17.3235 0.863422C18.774 1.22603 20.2523 1.58865 21.7027 1.92337C22.2885 2.06283 22.4837 2.31383 22.4837 2.92747C22.4837 7.64138 22.4837 12.3553 22.4837 17.0692C22.4837 17.7944 22.0374 18.1571 21.3122 17.9897C19.5828 17.5434 17.8256 17.0972 16.0684 16.6509H16.0962Z" fill="#2CC295"/>
<path d="M8.0625 17.8782V1.83978C10.1824 1.42138 12.3301 0.975035 14.45 0.556641V16.5951C12.3301 17.0135 10.1824 17.4598 8.0625 17.8782Z" fill="#2CC295"/>
</svg>
