<svg width="22" height="16" viewBox="0 0 22 16" fill="none" xmlns="http://www.w3.org/2000/svg">
<path d="M21.1778 0.897705H1.26404C0.83214 0.897705 0.481934 1.24783 0.481934 1.67973V2.37796C0.481934 2.80987 0.83214 3.15999 1.26404 3.15999H21.1778C21.6097 3.15999 21.9597 2.80987 21.9597 2.37796V1.67973C21.9597 1.24783 21.6097 0.897705 21.1778 0.897705Z" fill="#2CC295"/>
<path d="M21.1778 13.2419H1.26404C0.83214 13.2419 0.481934 13.5921 0.481934 14.024V14.7222C0.481934 15.1541 0.83214 15.5042 1.26404 15.5042H21.1778C21.6097 15.5042 21.9597 15.1541 21.9597 14.7222V14.024C21.9597 13.5921 21.6097 13.2419 21.1778 13.2419Z" fill="#2CC295"/>
<path d="M21.1778 7.06982H1.26404C0.83214 7.06982 0.481934 7.41995 0.481934 7.85185V8.55008C0.481934 8.98198 0.83214 9.33215 1.26404 9.33215H21.1778C21.6097 9.33215 21.9597 8.98198 21.9597 8.55008V7.85185C21.9597 7.41995 21.6097 7.06982 21.1778 7.06982Z" fill="#03624C"/>
</svg>
