<svg width="8" height="7" viewBox="0 0 8 7" fill="none" xmlns="http://www.w3.org/2000/svg">
<path d="M1.98999 3.59885C1.69999 3.46885 1.39999 3.33884 1.10999 3.21884C0.859985 3.10884 0.609985 2.99876 0.359985 2.88876C0.329985 2.87876 0.30002 2.85885 0.27002 2.84885C0.16002 2.80885 0.05 2.75888 0 2.62888V2.50888C0.04 2.38888 0.14 2.3388 0.25 2.2988C0.61 2.1788 0.970007 2.05881 1.32001 1.93881C1.77001 1.78881 2.21998 1.63887 2.66998 1.49887C3.10998 1.34887 3.54999 1.20881 3.98999 1.05881C4.43999 0.908807 4.88002 0.768865 5.33002 0.618865C5.77002 0.468865 6.22003 0.328802 6.66003 0.178802C6.84003 0.118802 7.02001 0.05888 7.20001 0.00888004C7.37001 -0.04112 7.54 0.128797 7.5 0.298797C7.39 0.758797 7.27999 1.20879 7.17999 1.66879C7.01999 2.33879 6.86002 3.0088 6.71002 3.6788C6.59002 4.1788 6.47999 4.66879 6.35999 5.16879C6.27999 5.51879 6.2 5.85883 6.12 6.20883C6.1 6.30883 6.06002 6.39881 5.96002 6.43881C5.86002 6.47881 5.78001 6.45877 5.70001 6.39877C5.43001 6.18877 5.17003 5.96888 4.91003 5.75888C4.64003 5.53888 4.37004 5.31884 4.10004 5.08884C4.09004 5.07884 4.07 5.06882 4.06 5.06882C4.06 5.04882 4.04003 5.03878 4.03003 5.02878C3.74003 4.78878 3.45003 4.54882 3.16003 4.31882C3.10003 4.27882 3.12003 4.25884 3.16003 4.21884C3.42003 3.96884 3.65998 3.70884 3.91998 3.46884C4.11998 3.28884 4.29999 3.08878 4.48999 2.90878C4.95999 2.43878 5.44003 1.96887 5.91003 1.49887C5.96003 1.44887 5.99001 1.39884 5.95001 1.33884C5.92001 1.28884 5.87004 1.28884 5.79004 1.33884C5.59004 1.45884 5.37999 1.58883 5.17999 1.70883C4.60999 2.05883 4.03002 2.39887 3.46002 2.74887C2.98002 3.03887 2.50002 3.32887 2.02002 3.61887L1.98999 3.59885Z" fill="#2CC295"/>
<path d="M1.98999 3.59878C2.46999 3.30878 2.94999 3.01878 3.42999 2.72878C3.99999 2.37878 4.58002 2.03875 5.15002 1.68875C5.35002 1.56875 5.56001 1.43875 5.76001 1.31875C5.84001 1.26875 5.88998 1.26875 5.91998 1.31875C5.95998 1.37875 5.92 1.42878 5.88 1.47878C5.41 1.94878 4.93002 2.4187 4.46002 2.8887C4.27002 3.0787 4.09001 3.26875 3.89001 3.44875C3.63001 3.68875 3.38 3.94875 3.13 4.19875C3.09 4.23875 3.08 4.25873 3.13 4.29873C3.42 4.52873 3.71 4.77881 4 5.00881C4.01 5.01881 4.03003 5.02873 4.03003 5.04873C3.66003 5.32873 3.28003 5.5987 2.91003 5.8887C2.69003 6.0687 2.46999 5.91875 2.42999 5.69875C2.34999 5.27875 2.25003 4.86875 2.16003 4.44875C2.10003 4.17875 2.03998 3.90881 1.97998 3.62881C1.97998 3.60881 1.97998 3.58875 1.97998 3.56875L1.98999 3.59878Z" fill="#03624C"/>
</svg>
