<svg width="33" height="32" viewBox="0 0 33 32" fill="none" xmlns="http://www.w3.org/2000/svg">
<path d="M17.281 5.69849C22.7831 5.69849 27.2798 10.1673 27.2798 15.6973C27.2798 21.1994 22.8111 25.696 17.281 25.696C11.7789 25.696 7.28223 21.2273 7.28223 15.6973C7.28223 10.1952 11.751 5.69851 17.281 5.72644V5.69849ZM16.1638 12.9043C16.1638 13.7981 16.1638 14.7198 16.1638 15.6135C16.1638 16.0045 16.2756 16.3117 16.5828 16.5631C18.0631 17.6803 19.5433 18.7975 21.0514 19.9147C21.3307 20.1102 21.638 20.1939 21.9732 20.1101C22.42 19.9984 22.6994 19.7191 22.7832 19.2723C22.895 18.7975 22.6993 18.4064 22.3363 18.1271C21.1074 17.2055 19.8784 16.2838 18.6496 15.3622C18.454 15.2225 18.3703 15.0549 18.3703 14.8315C18.3703 13.3233 18.3703 11.8151 18.3703 10.279C18.3703 9.5528 17.8955 9.05006 17.2531 9.05006C16.6107 9.05006 16.1638 9.5528 16.1638 10.279C16.1638 11.1727 16.1638 12.0664 16.1638 12.9602V12.9043Z" fill="#2CC295"/>
<path d="M5.13156 10.5579C5.27121 10.4183 5.41078 10.2786 5.57836 10.1669C6.05316 9.77585 6.72344 9.80377 7.11445 10.2506C7.50546 10.6696 7.53336 11.3679 7.08649 11.7868C6.10896 12.7085 5.10365 13.6301 4.09819 14.5239C3.51167 15.0545 2.72963 14.859 2.33861 14.1608C1.80795 13.1832 1.30509 12.1778 0.802356 11.1724C0.495131 10.5579 0.634792 9.94342 1.16545 9.63619C1.72404 9.30104 2.3107 9.46863 2.70171 10.0831C2.70171 10.0831 2.75748 10.139 2.78541 10.1948C2.84127 10.0831 2.86917 9.97134 2.92502 9.88755C5.13145 4.83231 8.92994 1.62043 14.3483 0.559107C22.392 -1.03287 30.2681 3.99446 32.3349 11.9264C34.5413 20.417 29.2347 29.0751 20.6604 31.0022C13.3149 32.6501 5.85765 28.7679 2.95298 21.8135C2.67369 21.1711 2.89713 20.5287 3.48365 20.2773C4.07017 20.026 4.68456 20.2774 4.99178 20.9477C6.49997 24.4668 9.04167 26.9525 12.6166 28.321C20.2973 31.1978 28.7319 26.5056 30.3518 18.434C31.8321 11.0885 26.8328 3.88277 19.4594 2.70973C13.5104 1.76013 7.81273 4.74854 5.24322 10.1669C5.18736 10.3065 5.13151 10.4462 5.07565 10.5579C5.07565 10.5579 5.10363 10.5858 5.13156 10.6137V10.5579Z" fill="#03624C"/>
</svg>
