<svg width="32" height="32" viewBox="0 0 32 32" fill="none" xmlns="http://www.w3.org/2000/svg">
<path d="M21.1873 8.96569C18.7016 9.83151 16.2159 10.6973 13.7302 11.5911C12.641 11.9821 11.8869 12.7361 11.4959 13.8254C10.6022 16.3111 9.7363 18.8248 8.84256 21.3106C8.67498 21.7574 8.75884 22.1764 9.094 22.5115C9.42915 22.8746 9.8481 22.9304 10.3229 22.7629C12.8086 21.8971 15.2663 21.0312 17.7521 20.1375C18.9251 19.7185 19.6793 18.9085 20.0982 17.7355C20.964 15.3056 21.8019 12.9038 22.6397 10.4739C22.6956 10.3063 22.7235 10.1387 22.7514 10.027C22.7514 9.16121 21.9973 8.65844 21.1873 8.93773V8.96569ZM15.7411 17.2887C14.959 17.2887 14.3168 16.6742 14.3168 15.8643C14.3168 15.0543 14.9311 14.412 15.7411 14.412C16.5231 14.412 17.1655 15.0264 17.1655 15.8363C17.1655 16.6463 16.5231 17.2887 15.7411 17.2887Z" fill="#03624C"/>
<path d="M15.7968 0.167725C7.13865 0.167725 0.100375 7.15006 0.0445164 15.8361C0.0165869 24.4943 7.05481 31.5605 15.7409 31.5884C24.399 31.5884 31.4373 24.606 31.4932 15.9199C31.549 7.26177 24.5108 0.195654 15.7968 0.167725ZM22.6396 10.5295C21.8017 12.9594 20.9359 15.3893 20.098 17.7912C19.6791 18.9363 18.897 19.7742 17.7519 20.1931C15.2662 21.0869 12.8084 21.9527 10.3227 22.8185C9.84792 22.9861 9.42897 22.9023 9.09382 22.5671C8.75866 22.232 8.70273 21.8131 8.84238 21.3662C9.70819 18.8805 10.574 16.3668 11.4957 13.8811C11.8867 12.7919 12.6408 12.0377 13.73 11.6467C16.2158 10.753 18.7014 9.88714 21.1872 9.02133C21.9971 8.74203 22.7512 9.2448 22.7512 10.1106C22.7512 10.2223 22.6954 10.3899 22.6396 10.5575V10.5295Z" fill="#67DEB2"/>
</svg>
