<svg width="49" height="48" viewBox="0 0 49 48" fill="none" xmlns="http://www.w3.org/2000/svg">
<path d="M14.2206 47.4324C11.8466 47.3207 9.52849 47.4323 7.29413 47.0413C3.60744 46.371 0.926269 42.9916 0.89834 39.2491C0.842481 32.8253 0.842481 26.4014 0.89834 19.9776C0.89834 17.3243 2.07139 15.1179 4.22196 13.5539C9.4727 9.81135 14.7793 6.09669 20.0859 2.43793C22.9906 0.454935 26.5934 0.454935 29.4702 2.43793C34.7488 6.06876 39.9996 9.75549 45.2224 13.4701C47.4289 15.0342 48.6297 17.2685 48.6297 20.0056C48.6577 26.4015 48.6856 32.7973 48.6297 39.1932C48.6018 43.6898 44.9151 47.2369 40.4464 47.2928C38.7707 47.2928 37.0671 47.2928 35.3075 47.2928C35.3075 47.0693 35.3075 46.8459 35.3075 46.6504C35.3075 42.6285 35.3075 38.6346 35.3075 34.6128C35.3075 29.4737 31.9279 25.2843 26.9564 24.195C21.0912 22.8823 15.1424 27.0159 14.3324 32.9649C14.2486 33.6073 14.2206 34.2497 14.2206 34.8921C14.2206 38.8022 14.2206 42.7123 14.2206 46.6224C14.2206 46.8179 14.2206 47.0413 14.2206 47.4044V47.4324Z" fill="#67DEB2"/>
<path d="M17.5723 47.2929C17.5723 47.1253 17.5723 46.9857 17.5723 46.846C17.5723 42.7404 17.5723 38.6347 17.5723 34.557C17.5723 31.0099 20.0021 28.1332 23.4933 27.435C27.6827 26.5971 31.8723 29.8648 31.984 34.138C32.0678 38.4392 31.9838 42.7683 32.0118 47.0694C32.0118 47.1253 32.0119 47.2091 31.984 47.2929H17.6002H17.5723Z" fill="#03624C"/>
</svg>
