<svg width="27" height="32" viewBox="0 0 27 32" fill="none" xmlns="http://www.w3.org/2000/svg">
<path d="M5.52985 31.4488C5.16677 31.365 4.80367 31.3092 4.46851 31.2254C2.23416 30.6109 0.837606 28.8793 0.725888 26.5611C0.61417 24.1592 0.893505 21.7573 1.81518 19.5229C2.4017 18.0706 3.26745 16.8138 4.71978 16.0317C5.61353 15.5569 6.56319 15.3335 7.56865 15.3615C7.87587 15.3615 8.21107 15.529 8.49037 15.6966C8.96517 15.948 9.38406 16.2552 9.83093 16.5344C12.4563 18.1544 15.0537 18.1544 17.6512 16.5344C18.0142 16.311 18.3773 16.0876 18.7125 15.8362C19.3269 15.3614 20.0251 15.3056 20.7792 15.4173C22.8181 15.7245 24.2425 16.8138 25.1922 18.6013C26.058 20.1933 26.449 21.897 26.6166 23.6565C26.7004 24.5782 26.7562 25.4719 26.7282 26.3936C26.7003 29.1306 24.8291 31.1416 22.12 31.4488C22.0641 31.4488 21.9803 31.4768 21.9244 31.5047H5.52985V31.4488Z" fill="#67DEB2"/>
<path d="M13.5176 15.2498C9.32818 15.2498 5.97664 11.8425 6.00457 7.68097C6.0325 3.51948 9.412 0.195801 13.5456 0.195801C17.6233 0.195801 21.0865 3.5753 21.0306 7.7368C21.0027 11.9262 17.6232 15.2498 13.4897 15.2498H13.5176Z" fill="#03624C"/>
</svg>
