<svg width="56" height="56" viewBox="0 0 56 56" fill="none" xmlns="http://www.w3.org/2000/svg">
<path d="M0.416504 26.3614C0.556151 25.3281 0.667965 24.2667 0.863471 23.2612C2.00858 17.0888 4.91321 11.9219 9.5495 7.73244C9.63329 7.64865 9.71716 7.59277 9.80094 7.53691C9.80094 7.53691 9.8568 7.50898 9.96851 7.45312C12.9849 16.7816 16.0291 26.0822 19.0734 35.4385H1.36618C1.11482 34.1258 0.891353 32.8132 0.639988 31.5005C0.556199 30.9419 0.500292 30.3833 0.416504 29.8247C0.416504 28.6796 0.416504 27.5345 0.416504 26.4173V26.3614Z" fill="#00DF82"/>
<path d="M29.1559 0.722168C30.2731 0.861815 31.3903 0.973602 32.4795 1.14118C35.7193 1.69977 38.7637 2.8169 41.5846 4.49267C41.6963 4.54853 41.7799 4.6323 41.9475 4.74402C33.9876 10.5254 26.0836 16.2789 18.1237 22.0603C18.0399 21.8648 17.9841 21.7252 17.9282 21.5855C16.2245 16.3348 14.5207 11.0841 12.7891 5.83331C12.6494 5.4423 12.7054 5.24677 13.0685 5.02333C16.9786 2.56554 21.2239 1.14111 25.8323 0.805953C25.9999 0.805953 26.1675 0.750097 26.363 0.722168C27.2846 0.722168 28.2063 0.722168 29.128 0.722168H29.1559Z" fill="#00DF82"/>
<path d="M53.371 37.5893C49.5167 48.2584 39.2946 54.7938 30.022 55.2687C33.0384 45.9402 36.0827 36.6397 39.127 27.2554C43.903 30.7186 48.623 34.154 53.371 37.5893Z" fill="#00DF82"/>
<path d="M30.4966 17.0326C35.2725 13.5693 39.9925 10.1339 44.7406 6.67065C49.1813 10.2736 52.2817 14.7703 53.9574 20.2444C55.5494 25.4672 55.2701 31.1927 54.3205 34.3208C46.3885 28.5674 38.4844 22.8139 30.4966 17.0046V17.0326Z" fill="#00DF82"/>
<path d="M2.53906 38.6509H32.0046C31.9488 38.8464 31.9209 39.014 31.865 39.1815C30.1613 44.4323 28.4576 49.6551 26.7539 54.9059C26.6422 55.241 26.5584 55.4365 26.1116 55.4086C18.5985 54.85 12.2865 51.7777 7.25915 46.1918C5.27616 43.9854 3.7121 41.4997 2.53906 38.6788V38.6509Z" fill="#00DF82"/>
<path d="M27.7595 33.8468C30.9524 33.8468 33.5409 31.2583 33.5409 28.0654C33.5409 24.8724 30.9524 22.2839 27.7595 22.2839C24.5665 22.2839 21.978 24.8724 21.978 28.0654C21.978 31.2583 24.5665 33.8468 27.7595 33.8468Z" fill="#00DF82"/>
</svg>
