<svg width="22" height="22" viewBox="0 0 22 22" fill="none" xmlns="http://www.w3.org/2000/svg">
<path d="M13.5583 20.9971C13.5583 20.9971 13.3926 20.9971 13.3098 20.9971C9.41684 20.9971 5.52399 20.9971 1.63108 20.9971C0.830405 20.9971 0.223007 20.5277 0.0849609 19.7547C0.0849609 19.6442 0.0849609 19.5062 0.0849609 19.3957C0.0849609 13.4597 0.0849609 7.52372 0.0849609 1.61533C0.0849609 0.649008 0.720022 0.0139465 1.68635 0.0139465C7.62235 0.0139465 13.5584 0.0139465 19.4667 0.0139465C20.4331 0.0139465 21.068 0.649008 21.068 1.61533C21.068 5.50824 21.068 9.37363 21.068 13.2665C21.068 13.3494 21.068 13.4045 21.068 13.5149C20.9575 13.5149 20.8747 13.5149 20.7643 13.5149C19.1906 13.5149 17.6444 13.5149 16.0707 13.5149C14.8283 13.5149 13.8621 14.2881 13.6136 15.4753C13.5584 15.6961 13.5583 15.917 13.5583 16.1655C13.5583 17.684 13.5583 19.2026 13.5583 20.6935C13.5583 20.8039 13.5583 20.8867 13.5583 21.0248V20.9971Z" fill="#2CC295"/>
<path d="M14.5527 20.8867C14.5527 19.2301 14.5527 17.5183 14.5527 15.8342C14.5527 15.1163 15.1877 14.5088 15.9056 14.5088C17.5897 14.5088 19.2463 14.5088 20.9305 14.5088C18.8046 16.6347 16.6787 18.7608 14.5527 20.8867Z" fill="#03624C"/>
</svg>
