<svg width="18" height="21" viewBox="0 0 18 21" fill="none" xmlns="http://www.w3.org/2000/svg">
<path d="M8.79963 16.9456C10.0006 16.9456 11.2015 16.9456 12.4025 16.9456C13.7431 16.9456 15.0837 16.9456 16.4243 16.9456C17.0108 16.9456 17.2902 16.5546 16.9829 16.1357C16.8712 15.996 16.7595 15.8285 16.6478 15.6888C15.782 14.5716 15.3909 13.3428 15.3909 12.0301C15.3909 10.9408 15.3909 9.85153 15.3909 8.76228C15.3909 8.45505 15.391 8.14785 15.3072 7.86855C14.7487 4.57287 10.6429 2.47817 6.78861 3.51156C4.02359 4.23773 2.20831 6.27658 2.20831 8.70645C2.20831 9.85156 2.20831 10.9687 2.20831 12.1138C2.20831 12.7842 2.0966 13.4265 1.87317 14.0689C1.6218 14.7951 1.17478 15.4654 0.672047 16.1077C0.588259 16.1915 0.532406 16.3033 0.504477 16.415C0.420688 16.7501 0.727913 17.0015 1.20271 17.0015C3.71637 17.0015 6.25801 17.0015 8.77167 17.0015L8.79963 16.9456Z" fill="#2CC295"/>
<path d="M8.99534 20.046C7.37543 20.046 5.97898 19.7109 4.83387 18.9288C4.72215 18.845 4.63826 18.7892 4.55447 18.7054C4.33104 18.4541 4.38689 18.1468 4.72204 17.9513C5.0572 17.7558 5.56005 17.7558 5.89521 17.9513C6.06278 18.0351 6.17443 18.1748 6.342 18.2585C7.8502 19.1802 10.5873 19.0685 11.9559 18.063C12.3469 17.7837 12.8775 17.7279 13.2685 17.9513C13.6595 18.1748 13.6595 18.5378 13.2685 18.8171C12.1234 19.6829 10.6711 20.0181 8.99534 20.046Z" fill="#03624C"/>
<path d="M8.79955 2.7854C9.53995 2.7854 10.1401 2.23524 10.1401 1.55654C10.1401 0.87784 9.53995 0.327637 8.79955 0.327637C8.05914 0.327637 7.45898 0.87784 7.45898 1.55654C7.45898 2.23524 8.05914 2.7854 8.79955 2.7854Z" fill="#03624C"/>
</svg>
