<svg width="17" height="20" viewBox="0 0 17 20" fill="none" xmlns="http://www.w3.org/2000/svg">
<path d="M7.58582 15.9237C8.7055 16.3145 9.82518 16.7052 10.9447 17.0961C12.1948 17.5324 13.4442 17.9704 14.6951 18.4042C15.248 18.5959 15.6331 18.3143 15.4924 17.8263C15.4418 17.6506 15.388 17.4751 15.331 17.3001C14.8979 15.9726 14.9128 14.6984 15.3622 13.4681C15.7311 12.4578 16.0789 11.4399 16.4252 10.4218C16.521 10.1399 16.5987 9.84925 16.6495 9.55458C17.2073 6.31239 14.0522 3.00582 10.118 2.70378C7.30252 2.48772 4.95191 3.80066 4.15053 6.04487C3.77323 7.10152 3.40559 8.16152 3.04119 9.22286C2.82648 9.84857 2.5154 10.4259 2.09334 10.9518C1.61446 11.5485 0.985078 12.0143 0.323163 12.4535C0.224437 12.5189 0.121671 12.5931 0.0641784 12.686C-0.113327 12.9724 0.0895088 13.3065 0.522964 13.458C2.87696 14.2807 5.23149 15.1018 7.58582 15.9237Z" fill="#2CBE91"/>
<path d="M6.77659 18.8927C5.27257 18.3421 4.06578 17.5823 3.27179 16.4901C3.19787 16.3885 3.12917 16.2834 3.08073 16.1785C2.93943 15.8733 3.11354 15.5987 3.47727 15.534C3.85239 15.4673 4.3211 15.6366 4.5576 15.9307C4.67041 16.071 4.75548 16.2194 4.87147 16.3585C5.99098 17.7036 8.57621 18.5006 10.1739 17.9956C10.6319 17.851 11.1461 17.9805 11.4355 18.3134C11.7262 18.6478 11.6222 18.9852 11.1591 19.1352C9.8192 19.569 8.33039 19.4111 6.77659 18.8927Z" fill="#03624C"/>
<path d="M13.8569 2.00472C14.076 1.37709 13.6968 0.674003 13.01 0.434274C12.3232 0.194544 11.5889 0.508952 11.3698 1.13657C11.1507 1.7642 11.5299 2.4673 12.2167 2.70702C12.9035 2.94675 13.6378 2.63234 13.8569 2.00472Z" fill="#03624C"/>
</svg>
