<svg width="32" height="33" viewBox="0 0 32 33" fill="none" xmlns="http://www.w3.org/2000/svg">
<path d="M0.464844 15.5845C0.548632 14.9979 0.604566 14.3835 0.716284 13.7969C1.35866 10.2499 3.0623 7.26149 5.7156 4.85955C5.77146 4.83162 5.79936 4.77574 5.85522 4.74781C5.85522 4.74781 5.88325 4.74775 5.96704 4.69189C7.69867 10.0544 9.45822 15.4169 11.1898 20.8073H0.995511C0.855863 20.0532 0.716318 19.2991 0.576671 18.545C0.520812 18.2378 0.492773 17.9026 0.464844 17.5674C0.464844 16.9251 0.464844 16.2547 0.464844 15.6123V15.5845Z" fill="#2CC295"/>
<path d="M16.9992 0.809939C17.6416 0.893728 18.2839 0.949576 18.9263 1.06129C20.7976 1.36852 22.5291 2.03883 24.1769 2.98844C24.2328 3.01637 24.2887 3.07219 24.4004 3.12805C19.82 6.45166 15.2675 9.77529 10.6871 13.0989C10.6312 12.9872 10.6032 12.9034 10.5753 12.8196C9.59772 9.8032 8.6202 6.75889 7.61474 3.7425C7.53095 3.51907 7.55887 3.4074 7.78231 3.26775C10.0446 1.84334 12.4745 1.0334 15.1278 0.837896C15.2395 0.837896 15.3234 0.809912 15.4351 0.781982C15.9658 0.781982 16.4963 0.781982 17.027 0.781982L16.9992 0.809939Z" fill="#03624C"/>
<path d="M30.936 22.0365C28.7296 28.181 22.8365 31.9514 17.502 32.2028C19.2336 26.8404 20.9932 21.4779 22.7527 16.0596C25.4898 18.0426 28.2269 20.0256 30.964 22.0086L30.936 22.0365Z" fill="#03624C"/>
<path d="M17.7812 10.1939C20.5463 8.18298 23.2554 6.22796 25.9925 4.21704C28.562 6.28382 30.3217 8.88123 31.2992 12.0373C32.2209 15.0537 32.0533 18.3215 31.4947 20.1369C26.9422 16.8133 22.3617 13.5176 17.7812 10.166V10.1939Z" fill="#2CC295"/>
<path d="M1.69385 22.6509H18.675C18.675 22.6509 18.6191 22.8463 18.5912 22.9581C17.6136 25.9744 16.6361 28.9909 15.6586 32.0073C15.6027 32.2028 15.5469 32.3144 15.2955 32.2865C10.9664 31.9513 7.33572 30.1918 4.43105 26.9799C3.28594 25.6952 2.39209 24.2708 1.69385 22.6509Z" fill="#2CC295"/>
<path d="M16.2172 19.8854C18.0528 19.8854 19.5408 18.3974 19.5408 16.5618C19.5408 14.7262 18.0528 13.2383 16.2172 13.2383C14.3816 13.2383 12.8936 14.7262 12.8936 16.5618C12.8936 18.3974 14.3816 19.8854 16.2172 19.8854Z" fill="#03624C"/>
</svg>
