<svg width="8" height="7" viewBox="0 0 8 7" fill="none" xmlns="http://www.w3.org/2000/svg">
<path d="M2.47998 3.89011C2.18998 3.76011 1.88998 3.6301 1.59998 3.5101C1.34998 3.4001 1.09998 3.29014 0.849976 3.18014C0.819976 3.17014 0.79001 3.15011 0.76001 3.14011C0.65001 3.10011 0.53999 3.05014 0.48999 2.92014V2.80014C0.52999 2.68014 0.62999 2.63006 0.73999 2.59006C1.09999 2.47006 1.46 2.35007 1.81 2.23007C2.26 2.08007 2.70997 1.93013 3.15997 1.79013C3.59997 1.64013 4.03998 1.50007 4.47998 1.35007C4.92998 1.20007 5.37001 1.06013 5.82001 0.910125C6.26001 0.760125 6.71002 0.620062 7.15002 0.470062C7.33002 0.410062 7.51 0.35014 7.69 0.30014C7.86 0.25014 8.02999 0.420057 7.98999 0.590057C7.87999 1.05006 7.76998 1.50005 7.66998 1.96005C7.50998 2.63005 7.35001 3.30006 7.20001 3.97006C7.08001 4.47006 6.96998 4.96005 6.84998 5.46005C6.76998 5.81005 6.68999 6.15009 6.60999 6.50009C6.58999 6.60009 6.55001 6.69007 6.45001 6.73007C6.35001 6.77007 6.27 6.75003 6.19 6.69003C5.92 6.48003 5.66002 6.26014 5.40002 6.05014C5.13002 5.83014 4.86003 5.6101 4.59003 5.3801C4.58003 5.3701 4.55999 5.36008 4.54999 5.36008C4.54999 5.34008 4.53002 5.33004 4.52002 5.32004C4.23002 5.08004 3.94002 4.84008 3.65002 4.61008C3.59002 4.57008 3.61002 4.5501 3.65002 4.5101C3.91002 4.2601 4.14997 4.0001 4.40997 3.7601C4.60997 3.5801 4.78998 3.38004 4.97998 3.20004C5.44998 2.73004 5.93002 2.26013 6.40002 1.79013C6.45002 1.74013 6.48 1.6901 6.44 1.6301C6.41 1.5801 6.36003 1.5801 6.28003 1.6301C6.08003 1.7501 5.86998 1.88009 5.66998 2.00009C5.09998 2.35009 4.52001 2.69013 3.95001 3.04013C3.47001 3.33013 2.99001 3.62013 2.51001 3.91013L2.47998 3.89011Z" fill="#2CC295"/>
<path d="M2.47998 3.89016C2.95998 3.60016 3.43998 3.31017 3.91998 3.02017C4.48998 2.67017 5.07001 2.33013 5.64001 1.98013C5.84001 1.86013 6.05 1.73013 6.25 1.61013C6.33 1.56013 6.37997 1.56013 6.40997 1.61013C6.44997 1.67013 6.41 1.72017 6.37 1.77017C5.9 2.24017 5.42001 2.7102 4.95001 3.1802C4.76001 3.3702 4.58 3.56014 4.38 3.74014C4.12 3.98014 3.87 4.24014 3.62 4.49014C3.58 4.53014 3.57 4.55011 3.62 4.59011C3.91 4.82011 4.19999 5.0702 4.48999 5.3002C4.49999 5.3102 4.52002 5.32011 4.52002 5.34011C4.15002 5.62011 3.77002 5.8902 3.40002 6.1802C3.18002 6.3602 2.95998 6.21014 2.91998 5.99014C2.83998 5.57014 2.74002 5.16014 2.65002 4.74014C2.59002 4.47014 2.52997 4.20019 2.46997 3.92019C2.46997 3.90019 2.46997 3.88013 2.46997 3.86013L2.47998 3.89016Z" fill="#03624C"/>
</svg>
