<svg width="35" height="24" viewBox="0 0 35 24" fill="none" xmlns="http://www.w3.org/2000/svg">
<path d="M34.2749 8.63571V20.5895C34.2749 20.5895 34.2192 20.6733 34.2192 20.7012C33.8561 22.6004 32.4037 23.8293 30.5045 23.8293C21.6788 23.8293 12.8531 23.8293 4.02742 23.8293C1.87685 23.8293 0.256836 22.2094 0.256836 20.0589C0.256836 16.3442 0.256836 12.6296 0.256836 8.9429C0.256836 8.52395 0.340604 8.44019 0.759546 8.44019C11.7638 8.44019 22.768 8.44019 33.7722 8.44019C33.9398 8.44019 34.1074 8.55192 34.2749 8.63571ZM8.74751 16.9586C8.85923 15.7018 8.32858 15.3388 7.18347 15.3388C5.92664 15.3388 5.56351 15.7577 5.56351 16.9586C5.56351 18.1317 5.95457 18.5786 7.18347 18.5786C8.41236 18.5786 8.88702 18.1596 8.7753 16.9586H8.74751Z" fill="#2CC295"/>
<path d="M34.2749 6.12171C34.1074 6.17757 33.9398 6.31723 33.7722 6.31723C22.768 6.31723 11.7638 6.31723 0.759546 6.31723C0.340604 6.31723 0.256836 6.23347 0.256836 5.81452C0.284765 4.97664 0.256802 4.08289 0.396449 3.27293C0.731603 1.65302 2.21201 0.535839 3.85985 0.47998C3.97157 0.47998 4.08327 0.47998 4.19499 0.47998C12.909 0.47998 21.623 0.47998 30.337 0.47998C32.4037 0.47998 33.8003 1.62513 34.2192 3.66398C34.2192 3.69191 34.247 3.71984 34.2749 3.74777V6.14966V6.12171Z" fill="#03624C"/>
<path d="M8.7476 16.9587C8.83139 18.1318 8.3845 18.5787 7.1556 18.5787C5.92671 18.5787 5.53564 18.1597 5.53564 16.9587C5.53564 15.7578 5.92671 15.3389 7.1556 15.3389C8.30071 15.3389 8.83137 15.7298 8.71965 16.9587H8.7476Z" fill="#03624C"/>
</svg>
