<svg width="9" height="9" viewBox="0 0 9 9" fill="none" xmlns="http://www.w3.org/2000/svg">
<mask id="mask0_397_2466" style="mask-type:luminance" maskUnits="userSpaceOnUse" x="0" y="0" width="9" height="9">
<path d="M6.67156 8.34618C6.06982 8.32288 5.53147 8.19129 5.00952 8.0054C2.56517 7.13481 0.951511 5.46101 0.205955 2.97191C0.0944905 2.59964 0.0378217 2.20505 0.00446609 1.81669C-0.0288895 1.42949 0.126671 1.08892 0.401562 0.807656C0.528279 0.678089 0.649128 0.542636 0.774002 0.411225C1.27182 -0.111904 1.94918 -0.138549 2.48136 0.346364C2.64513 0.495542 2.806 0.648264 2.96138 0.806326C3.40288 1.2552 3.42618 1.91917 3.01284 2.39184C2.75069 2.69154 2.48438 2.98462 2.07322 3.09457C1.89354 3.14268 1.86955 3.25641 1.9656 3.45755C2.28742 4.13187 2.7083 4.73641 3.25003 5.253C3.77266 5.75132 4.37086 6.13685 5.03295 6.42398C5.24833 6.51734 5.31945 6.49489 5.41214 6.28403C5.57305 5.91795 5.83081 5.63599 6.15062 5.40451C6.5814 5.09275 7.10903 5.09257 7.51936 5.42947C7.75218 5.62056 7.97629 5.82797 8.17441 6.05425C8.49138 6.4163 8.57284 6.85169 8.35058 7.2771C8.08508 7.78497 7.69605 8.18408 7.09464 8.29605C6.94177 8.32455 6.78504 8.33311 6.67156 8.34618Z" fill="white"/>
</mask>
<g mask="url(#mask0_397_2466)">
<path d="M6.67156 8.34618C6.06982 8.32288 5.53147 8.19129 5.00952 8.0054C2.56517 7.13481 0.951511 5.46101 0.205955 2.97191C0.0944905 2.59964 0.0378217 2.20505 0.00446609 1.81669C-0.0288895 1.42949 0.126671 1.08892 0.401562 0.807656C0.528279 0.678089 0.649128 0.542636 0.774002 0.411225C1.27182 -0.111904 1.94918 -0.138549 2.48136 0.346364C2.64513 0.495542 2.806 0.648264 2.96138 0.806326C3.40288 1.2552 3.42618 1.91917 3.01284 2.39184C2.75069 2.69154 2.48438 2.98462 2.07322 3.09457C1.89354 3.14268 1.86955 3.25641 1.9656 3.45755C2.28742 4.13187 2.7083 4.73641 3.25003 5.253C3.77266 5.75132 4.37086 6.13685 5.03295 6.42398C5.24833 6.51734 5.31945 6.49489 5.41214 6.28403C5.57305 5.91795 5.83081 5.63599 6.15062 5.40451C6.5814 5.09275 7.10903 5.09257 7.51936 5.42947C7.75218 5.62056 7.97629 5.82797 8.17441 6.05425C8.49138 6.4163 8.57284 6.85169 8.35058 7.2771C8.08508 7.78497 7.69605 8.18408 7.09464 8.29605C6.94177 8.32455 6.78504 8.33311 6.67156 8.34618Z" fill="#2CB487"/>
<path d="M8.39751 7.3196C8.35108 7.40793 8.30146 7.49289 8.24732 7.57352C8.23961 7.58558 8.23191 7.59785 8.22303 7.60891C8.21532 7.26781 8.074 6.9354 7.82107 6.6362C7.55272 6.31706 7.248 6.02456 6.92903 5.75403C6.66855 5.5321 6.36938 5.41183 6.06348 5.3887C6.07454 5.37881 6.08558 5.37108 6.09765 5.3622C6.54803 5.03535 7.10017 5.03531 7.52843 5.38747C7.77248 5.58727 8.00645 5.80365 8.21295 6.04099C8.54533 6.41964 8.63049 6.87474 8.39751 7.3196Z" fill="#03624C"/>
<path d="M1.9053 0.820297C1.53621 0.475511 1.11531 0.301432 0.696777 0.296906C1.2365 -0.233598 1.95374 -0.248536 2.51995 0.268057C2.69863 0.430644 2.87511 0.597904 3.04457 0.770884C3.52663 1.26099 3.55192 1.98512 3.09986 2.50188C3.09416 2.50758 3.0895 2.5146 3.0838 2.52029C3.04575 2.1559 2.88316 1.79953 2.59939 1.50318C2.37562 1.26902 2.14181 1.04172 1.9053 0.820297Z" fill="#03624C"/>
</g>
</svg>
