<svg width="6" height="8" viewBox="0 0 6 8" fill="none" xmlns="http://www.w3.org/2000/svg">
<path d="M1.09359 7.13C1.01359 7.11 0.933599 7.09995 0.853599 7.07995C0.343599 6.93995 0.0236234 6.54988 0.00362341 6.00988C-0.0163766 5.45988 0.0436234 4.91989 0.253623 4.39989C0.383623 4.06989 0.583597 3.77997 0.913597 3.59997C1.1136 3.48997 1.33362 3.43993 1.56362 3.43993C1.63362 3.43993 1.71364 3.47988 1.77364 3.50988C1.88364 3.56988 1.97364 3.63994 2.08364 3.69994C2.67364 4.06994 3.27361 4.06994 3.86361 3.69994C3.94361 3.64994 4.0336 3.59991 4.1036 3.53991C4.2436 3.42991 4.40363 3.41993 4.57363 3.43993C5.03363 3.50993 5.36364 3.7599 5.58364 4.1599C5.78364 4.5199 5.86365 4.90994 5.90365 5.31994C5.92365 5.52994 5.93362 5.73993 5.93362 5.93993C5.93362 6.55993 5.50363 7.01996 4.88363 7.08996C4.86363 7.08996 4.85364 7.08997 4.83364 7.09997H1.09359V7.13Z" fill="#2CC295"/>
<path d="M2.91367 3.42993C1.96367 3.42993 1.19371 2.64996 1.20371 1.70996C1.20371 0.759961 1.97368 0 2.92368 0C3.85368 0 4.6437 0.769971 4.6337 1.71997C4.6337 2.66997 3.86367 3.43993 2.91367 3.42993Z" fill="#03624C"/>
<path d="M5.3335 5.24023V6.34021C5.3035 6.48021 5.21349 6.55017 5.07349 6.55017C4.49349 6.55017 3.92344 6.55017 3.34344 6.55017C3.32344 6.55017 3.30346 6.55017 3.29346 6.55017C3.17346 6.53017 3.0835 6.43017 3.0835 6.30017C3.0835 5.96017 3.0835 5.62015 3.0835 5.28015C3.0835 5.12015 3.19344 5.02014 3.34344 5.02014C3.43344 5.02014 3.52346 5.02014 3.61346 5.02014C3.61346 5.02014 3.63349 5.02014 3.64349 5.02014C3.64349 4.99014 3.64349 4.9702 3.64349 4.9502C3.64349 4.8102 3.73347 4.72021 3.87347 4.72021C4.10347 4.72021 4.33347 4.72021 4.55347 4.72021C4.57347 4.72021 4.59346 4.72021 4.61346 4.72021C4.71346 4.75021 4.78345 4.83019 4.78345 4.94019C4.78345 4.97019 4.78345 4.99014 4.78345 5.02014C4.79345 5.02014 4.80348 5.02014 4.81348 5.02014C4.91348 5.02014 5.00345 5.02014 5.10345 5.02014C5.20345 5.02014 5.3035 5.1002 5.3335 5.2002C5.3335 5.2102 5.3335 5.23023 5.3335 5.24023ZM4.20349 6.34021C4.50349 6.34021 4.75348 6.09016 4.75348 5.79016C4.75348 5.49016 4.50349 5.24023 4.20349 5.24023C3.90349 5.24023 3.6535 5.49016 3.6535 5.79016C3.6535 6.09016 3.90349 6.34021 4.20349 6.34021Z" fill="#03624C"/>
<path d="M4.56329 5.79016C4.56329 5.99016 4.40331 6.15015 4.20331 6.15015C4.00331 6.15015 3.84326 5.98016 3.84326 5.79016C3.84326 5.59016 4.00331 5.43018 4.20331 5.43018C4.40331 5.43018 4.56329 5.60016 4.56329 5.79016Z" fill="white"/>
</svg>
