<svg width="22" height="22" viewBox="0 0 22 22" fill="none" xmlns="http://www.w3.org/2000/svg">
<path d="M21.0172 11.6318C20.962 11.9907 20.9344 12.3773 20.8792 12.7362C20.5479 14.6965 19.692 16.3806 18.3392 17.8439C18.3116 17.8715 18.284 17.9266 18.2288 17.9819C18.6429 18.396 19.0295 18.7825 19.4436 19.1967C19.6369 19.3899 19.83 19.5833 20.0233 19.8042C20.0785 19.8594 20.1338 19.9697 20.1338 20.0249C20.1062 20.1078 19.9957 20.163 19.9129 20.1906C19.2227 20.301 18.5048 20.4116 17.7869 20.522C16.3513 20.7429 14.9156 20.9638 13.4799 21.1846C13.4247 21.1846 13.3695 21.1846 13.3142 21.1846C13.121 21.1846 13.0657 21.1294 13.0933 20.9637C13.2038 20.163 13.3418 19.3624 13.4523 18.5617C13.6455 17.2089 13.8665 15.8559 14.0598 14.5031C14.0598 14.4478 14.0598 14.3926 14.0874 14.3374C14.115 14.2546 14.1702 14.1441 14.2254 14.1441C14.2806 14.1441 14.3911 14.1718 14.4463 14.227C15.0537 14.8068 15.6334 15.4143 16.2132 16.0217C17.6489 14.7241 18.6982 12.1011 18.0631 9.39541C17.649 7.65603 16.7379 6.24793 15.3022 5.22638C13.8665 4.17723 12.265 3.79075 10.498 3.90119C10.6361 2.96247 10.7742 2.05137 10.9123 1.14026C11.5749 1.14026 12.2099 1.14023 12.8449 1.27827C16.8483 2.10655 19.4436 4.50863 20.6031 8.42916C20.7688 9.00895 20.824 9.61625 20.9068 10.2237C20.9068 10.3065 20.9068 10.3618 20.9344 10.4446V11.6318H21.0172Z" fill="#03624C"/>
<path d="M11.1888 18.0926C11.0508 19.0313 10.9128 19.9147 10.7748 20.8259C8.34518 20.9915 4.6179 19.8872 2.29872 16.3532C0.00715125 12.8468 0.0624036 7.57343 3.54118 3.95661C3.48596 3.929 3.40311 3.90128 3.34789 3.84607C2.7957 3.29388 2.24344 2.74176 1.71887 2.18958C1.66365 2.13436 1.58088 1.99624 1.60849 1.94102C1.6361 1.85819 1.77405 1.80298 1.85688 1.77537C3.9828 1.44406 6.13634 1.11279 8.26226 0.781474C8.59357 0.726255 8.64878 0.78146 8.59356 1.11277C8.26225 3.23869 7.95861 5.39223 7.6273 7.51815C7.6273 7.54576 7.6273 7.60092 7.6273 7.62853C7.57208 7.71135 7.54448 7.7942 7.46165 7.82181C7.40643 7.82181 7.29595 7.79429 7.24073 7.73907C6.79898 7.29732 6.35728 6.85546 5.91554 6.41371C5.74988 6.24805 5.61191 6.11006 5.47386 5.9444C3.95535 7.38008 2.96135 10.0306 3.67919 12.7363C4.12094 14.4205 5.03207 15.8009 6.46776 16.7948C7.87583 17.7888 9.47706 18.1754 11.1888 18.0649V18.0926Z" fill="#67DEB2"/>
</svg>
