<svg width="19" height="19" viewBox="0 0 19 19" fill="none" xmlns="http://www.w3.org/2000/svg">
<path d="M18.0043 15.7784C16.7195 14.4937 15.4068 13.181 14.122 11.8962C13.8986 12.2314 13.6193 12.5665 13.2842 12.9017C12.8932 13.3206 12.5022 13.6279 12.1392 13.9072C13.4239 15.1919 14.7087 16.4767 15.9934 17.7614C16.4403 18.2083 16.943 18.32 17.5295 18.0966C18.5071 17.7335 18.7304 16.5046 17.9763 15.7505L18.0043 15.7784Z" fill="#03624C"/>
<path d="M11.8596 13.5999C11.8596 13.5999 12.7534 13.0134 13.8147 11.6448C14.904 9.94114 15.323 8.15366 14.9599 6.1986C14.513 3.7408 13.0606 1.89748 10.6587 0.724438C9.42977 0.137919 8.00536 -0.0855236 6.63681 0.193771C0.74369 1.36681 -1.15545 7.48336 1.6375 11.6169C2.61503 13.0693 3.98358 14.0747 5.65935 14.5495C7.86578 15.1919 9.90455 14.8288 11.8596 13.5999ZM8.78744 11.9242C5.46383 12.6782 2.53117 9.74566 3.3132 6.39412C3.70421 4.83007 4.98906 3.51739 6.55311 3.12638C9.96051 2.26056 12.9768 5.33281 12.0831 8.71228C11.6642 10.2763 10.3515 11.5332 8.78744 11.8962V11.9242Z" fill="#2CC295"/>
</svg>
