<svg width="77" height="92" viewBox="0 0 77 92" fill="none" xmlns="http://www.w3.org/2000/svg">
<path d="M14.2231 91.6181C13.1872 91.3941 12.1234 91.254 11.0875 90.9461C4.50815 89.0983 0.364582 84.0868 0.0566148 77.2275C-0.251353 70.1443 0.532606 63.173 3.24832 56.5657C4.98414 52.2821 7.53184 48.5865 11.7874 46.3187C14.4191 44.9189 17.2188 44.247 20.1865 44.331C21.1104 44.331 22.0904 44.8069 22.9303 45.2829C24.3022 46.0108 25.562 46.9347 26.9059 47.7466C34.6331 52.4781 42.3323 52.4781 50.0595 47.7466C51.1234 47.0747 52.2153 46.4587 53.2232 45.7028C55.071 44.331 57.0867 44.163 59.2985 44.4709C65.2899 45.3388 69.5174 48.5865 72.3731 53.794C74.9208 58.4135 76.0687 63.4529 76.5726 68.6324C76.8246 71.2921 76.9646 73.9798 76.9366 76.6675C76.8526 84.6467 71.3092 90.5821 63.3021 91.478C63.1061 91.478 62.91 91.59 62.7141 91.646H14.2231V91.6181Z" fill="#00DF82"/>
<path d="M37.8814 44.1908C25.5067 44.1068 15.5957 34.2239 15.6797 22.0451C15.7637 9.81043 25.7028 0.095459 37.9935 0.095459C50.0602 0.095459 60.2511 10.0064 60.1391 22.2131C60.0271 34.4758 50.0881 44.2748 37.8814 44.1908Z" fill="#00DF82"/>
<path d="M69.2649 67.4002V81.4827C69.2649 81.4827 69.2369 81.5387 69.2369 81.5667C68.8729 83.3025 67.669 84.2824 65.8772 84.2824C58.402 84.2824 50.9267 84.2824 43.4515 84.2824C43.2275 84.2824 42.9755 84.2824 42.7516 84.2264C41.1557 83.9465 40.064 82.6306 40.064 81.0068C40.064 76.6673 40.064 72.2997 40.064 67.9602C40.064 65.9724 41.4357 64.6005 43.4515 64.6005C44.5994 64.6005 45.7754 64.6005 46.9233 64.6005C47.0353 64.6005 47.1192 64.6005 47.2592 64.6005C47.2592 64.2645 47.2592 63.9566 47.2592 63.6486C47.2592 61.9128 48.4631 60.6809 50.2269 60.6809C53.1946 60.6809 56.1342 60.6809 59.1019 60.6809C59.3819 60.6809 59.6618 60.6809 59.9138 60.7649C61.2576 61.1289 62.0696 62.1927 62.0696 63.5646C62.0696 63.9006 62.0696 64.2086 62.0696 64.5725C62.2096 64.5725 62.3216 64.5725 62.4336 64.5725C63.6935 64.5725 64.9533 64.5725 66.2131 64.5725C67.585 64.6005 68.7888 65.5804 69.1528 66.8682C69.2088 67.0362 69.2369 67.2042 69.2929 67.3442L69.2649 67.4002ZM54.6503 81.5388C58.5699 81.5388 61.7897 78.3471 61.7897 74.4555C61.7897 70.5639 58.5699 67.3722 54.6503 67.3722C50.7307 67.3722 47.5111 70.5639 47.5111 74.4555C47.5111 78.3471 50.7307 81.5388 54.6503 81.5388Z" fill="#042222"/>
<path d="M59.3544 74.4551C59.3544 77.0308 57.2268 79.1306 54.6231 79.1306C52.0474 79.1306 49.9194 77.0028 49.9194 74.4551C49.9194 71.8794 52.0472 69.7795 54.6509 69.7795C57.2267 69.7795 59.3544 71.9074 59.3544 74.4551Z" fill="#042222"/>
</svg>
