<svg width="19" height="18" viewBox="0 0 19 18" fill="none" xmlns="http://www.w3.org/2000/svg">
<path d="M10.1696 0.754988L12.401 5.27363C12.5125 5.49677 12.7357 5.6642 12.9868 5.69209L17.9516 6.41734C18.5932 6.50101 18.8443 7.30985 18.398 7.75614L14.7997 11.2707C14.6045 11.438 14.5209 11.717 14.5767 11.968L15.4134 16.933C15.525 17.5746 14.8557 18.0485 14.2699 17.7696L9.83486 15.4267C9.61172 15.3151 9.33276 15.3151 9.10962 15.4267L4.67473 17.7696C4.08898 18.0764 3.41946 17.5746 3.53103 16.933L4.36778 11.968C4.42357 11.717 4.34001 11.4659 4.14476 11.2707L0.546464 7.75614C0.0722839 7.30985 0.351309 6.50101 0.992846 6.41734L5.9577 5.69209C6.20874 5.6642 6.43194 5.49677 6.54351 5.27363L8.77491 0.754988C9.05384 0.169236 9.89063 0.169236 10.1696 0.754988Z" fill="#03624C"/>
</svg>
