<svg width="5" height="8" viewBox="0 0 5 8" fill="none" xmlns="http://www.w3.org/2000/svg">
<path d="M4.17814 4.69008C4.13404 4.31691 4.09196 3.94353 4.05224 3.56986C3.97532 2.84911 3.37525 2.21504 2.65551 2.13239C2.33839 2.09587 2.01438 2.10331 1.69406 2.11256C0.902452 2.13562 0.21369 2.78752 0.131045 3.5751C0.0933407 3.93513 0.0552971 4.29533 0.0105238 4.65453C-0.0648839 5.25931 0.270582 5.83364 0.836139 6.05532C0.954805 6.10178 1.07767 6.1243 1.20274 6.13473V6.14501H2.82467C2.82602 6.14501 2.82838 6.14587 2.82955 6.14603C2.83393 6.1462 2.83797 6.14501 2.84218 6.14501H2.942V6.13751C3.67604 6.0993 4.26583 5.43086 4.17814 4.69008Z" fill="#2CB588"/>
<path d="M2.6205 5.6838C2.6205 5.94722 2.62117 6.21061 2.62033 6.47404C2.61932 6.79166 2.39275 7.02517 2.0891 7.02315C1.78999 7.02113 1.56731 6.78784 1.56698 6.47342C1.5663 5.94658 1.56613 5.41969 1.56698 4.89284C1.56765 4.57994 1.79337 4.34798 2.09399 4.34814C2.39445 4.34814 2.61915 4.58042 2.62033 4.89367C2.62134 5.15709 2.6205 5.42038 2.6205 5.6838Z" fill="#03624C"/>
<path d="M2.0916 0.0888685C1.60953 0.0898785 1.21683 0.481427 1.21582 0.96232C1.21464 1.44506 1.61172 1.84179 2.09531 1.84111C2.57553 1.84044 2.96905 1.44722 2.97107 0.966326C2.97309 0.482909 2.57704 0.0880269 2.0916 0.0888685Z" fill="#2CB588"/>
<path d="M2.09162 1.75468e-06C2.62671 -0.00100817 3.06266 0.434067 3.06048 0.966633C3.05829 1.49668 2.6247 1.92975 2.0955 1.93059C1.56277 1.93127 1.12529 1.49431 1.12647 0.962421C1.12765 0.432548 1.5604 0.00118 2.09162 1.75468e-06ZM2.09432 0.527339C1.85076 0.527003 1.65416 0.721543 1.65365 0.963757C1.65315 1.20412 1.85177 1.40316 2.09264 1.40367C2.33334 1.40417 2.53279 1.20597 2.53346 0.965606C2.53413 0.723897 2.33771 0.527676 2.09432 0.527339Z" fill="#03624C"/>
<path d="M0.594001 0.613167C0.651398 0.613167 0.708967 0.612325 0.766364 0.613167C0.928289 0.616028 1.03652 0.725431 1.03922 0.888702C1.04006 0.940713 1.04022 0.992745 1.03922 1.04476C1.03585 1.19927 0.933166 1.3089 0.777806 1.31546C0.657625 1.32051 0.536772 1.32111 0.416591 1.31505C0.216458 1.30495 0.0678292 1.14673 0.0728788 0.957534C0.0780967 0.760935 0.231948 0.615524 0.437973 0.613167C0.489984 0.612494 0.54199 0.613167 0.594001 0.613167Z" fill="#03624C"/>
<path d="M3.59376 0.613618C3.65115 0.613618 3.70872 0.612309 3.76612 0.613824C3.95313 0.619042 4.09703 0.75601 4.11285 0.942678C4.12766 1.11739 3.9989 1.28789 3.81728 1.30708C3.67135 1.3224 3.52189 1.3211 3.37528 1.31016C3.24012 1.30023 3.15175 1.18856 3.14788 1.05189C3.14619 0.991795 3.14586 0.931368 3.14788 0.871277C3.15326 0.726858 3.26065 0.619313 3.40491 0.613927C3.46769 0.61157 3.53081 0.613618 3.59376 0.613618Z" fill="#03624C"/>
</svg>
