<svg width="9" height="9" viewBox="0 0 9 9" fill="none" xmlns="http://www.w3.org/2000/svg">
<path d="M0 3.80751C0.0212084 3.65349 0.0363565 3.49845 0.0644661 3.34561C0.232787 2.43062 0.666043 1.66319 1.35212 1.03788C1.36373 1.02728 1.37618 1.01723 1.38864 1.00747C1.39268 1.00427 1.3979 1.00271 1.41389 0.994629C1.8628 2.37907 2.3112 3.76182 2.76179 5.15097H0.138178C0.102999 4.9574 0.0659742 4.76171 0.0323101 4.56528C0.0180028 4.48247 0.01059 4.3984 0.000154102 4.31491C0.000154102 4.14575 0 3.97667 0 3.80751Z" fill="#2CB588"/>
<path d="M4.25838 0.00020547C4.42283 0.0210772 4.58812 0.0360254 4.75122 0.0637983C5.23127 0.145434 5.68052 0.313418 6.10064 0.560007C6.11647 0.569265 6.13113 0.580179 6.1552 0.59617C4.97695 1.45393 3.80374 2.30838 2.62297 3.16783C2.61186 3.13972 2.60261 3.11932 2.59587 3.09828C2.34272 2.31828 2.09026 1.53798 1.83525 0.758491C1.81657 0.701262 1.82279 0.671479 1.87598 0.637983C2.45585 0.272391 3.08536 0.0602427 3.76941 0.0129446C3.79533 0.0110931 3.82092 0.00437634 3.84667 0C3.98385 0 4.1212 0.00020547 4.25838 0.00020547Z" fill="#2CB588"/>
<path d="M7.84672 5.47655C7.27527 7.05893 5.75921 8.0323 4.38672 8.1008C4.83546 6.71704 5.28336 5.33515 5.73581 3.93994C6.44242 4.45433 7.14247 4.96384 7.84672 5.47655Z" fill="#2CB588"/>
<path d="M4.45719 2.42057C5.16548 1.90501 5.86486 1.39587 6.56995 0.882324C7.2291 1.41809 7.68558 2.08613 7.93419 2.89777C8.17203 3.67441 8.13028 4.52174 7.98654 4.99017C6.81199 4.13511 5.63947 3.28136 4.45719 2.42057Z" fill="#2CB588"/>
<path d="M0.316406 5.63281H4.68451C4.6766 5.66126 4.67052 5.68593 4.66278 5.71017C4.41097 6.48798 4.15866 7.26567 3.90719 8.04348C3.89171 8.09129 3.87994 8.12398 3.81278 8.1191C2.69833 8.03578 1.76567 7.5804 1.01765 6.74923C0.722582 6.42134 0.492133 6.05092 0.316406 5.63281Z" fill="#2CB588"/>
<path d="M4.05189 4.91633C4.52497 4.91633 4.90849 4.53281 4.90849 4.05973C4.90849 3.58665 4.52497 3.20312 4.05189 3.20312C3.57881 3.20312 3.19531 3.58665 3.19531 4.05973C3.19531 4.53281 3.57881 4.91633 4.05189 4.91633Z" fill="#03624C"/>
</svg>
