<svg width="8" height="8" viewBox="0 0 8 8" fill="none" xmlns="http://www.w3.org/2000/svg">
<path d="M3.56629 0.000410939C3.71929 0.000410939 3.87228 0.000410939 4.02528 0.000410939C4.0443 0.00461896 4.06298 0.0111871 4.08217 0.0125336C4.6516 0.0554554 5.18686 0.214512 5.67751 0.50638C6.68575 1.10594 7.30383 1.98302 7.52096 3.13803C7.54688 3.27555 7.56002 3.41562 7.57921 3.55432V4.01333C7.575 4.03707 7.57028 4.0608 7.56658 4.08453C7.53628 4.27911 7.51911 4.47681 7.47383 4.66786C6.93487 6.94086 4.48025 8.19016 2.32995 7.28913C0.688826 6.60155 -0.24365 4.89785 0.0554559 3.13351C0.313491 1.61139 1.5227 0.370987 3.04011 0.075921C3.21381 0.0420885 3.39073 0.0253224 3.56629 0.000410939ZM3.20171 4.65563C3.17932 4.63644 3.16416 4.62394 3.14952 4.61115C2.85513 4.35177 2.56123 4.09191 2.26633 3.83303C2.06974 3.66051 1.7942 3.67211 1.63025 3.8581C1.46479 4.04578 1.48433 4.3175 1.68026 4.49239C2.09449 4.86219 2.50957 5.23081 2.92599 5.59792C3.13404 5.78138 3.39881 5.76178 3.58244 5.55374C4.27794 4.76549 4.97311 3.97699 5.66845 3.18858C5.75665 3.0886 5.84382 2.98787 5.93253 2.88839C6.10623 2.69347 6.09899 2.42069 5.91468 2.25287C5.7302 2.08489 5.45215 2.10151 5.28029 2.29592C4.79317 2.84683 4.30791 3.39942 3.82197 3.95118C3.61662 4.18447 3.41127 4.41779 3.20171 4.65563Z" fill="#2CB588"/>
<path d="M3.20178 4.65567C3.41134 4.41783 3.61669 4.18472 3.82204 3.95142C4.30798 3.3995 4.79324 2.84708 5.28036 2.29616C5.45222 2.10175 5.73044 2.08486 5.91475 2.25301C6.09906 2.421 6.10631 2.69372 5.9326 2.88863C5.8439 2.98811 5.75672 3.08874 5.66852 3.18872C4.97319 3.97714 4.27802 4.76557 3.58252 5.55398C3.39888 5.76203 3.13411 5.78153 2.92607 5.59806C2.50964 5.23095 2.09457 4.86216 1.68033 4.49253C1.48441 4.31764 1.46487 4.04602 1.63032 3.85835C1.79427 3.67235 2.06998 3.66075 2.26641 3.83328C2.5613 4.09216 2.8552 4.35201 3.14959 4.61139C3.16424 4.62435 3.17939 4.63665 3.20178 4.65567Z" fill="#03624C"/>
</svg>
