<svg width="7" height="7" viewBox="0 0 7 7" fill="none" xmlns="http://www.w3.org/2000/svg">
<path d="M0 4.53406C0.0311393 4.41674 0.0784404 4.30938 0.172363 4.22606C0.317624 4.09713 0.490991 4.08531 0.676817 4.09928V6.12388C0.500585 6.08718 0.355151 6.00355 0.234633 5.8768C0.115462 5.7514 0.0415761 5.60236 0.0124566 5.43134C0.00993178 5.41636 0.00420664 5.40188 0.000166944 5.38706C0.000166944 5.1026 0 4.81835 0 4.53406Z" fill="#2CB588"/>
<path d="M4.60409 1.99222C4.60409 2.20986 4.60712 2.42746 4.60258 2.6451C4.6009 2.72875 4.58962 2.81396 4.56959 2.89526C4.49586 3.19503 4.28344 3.37546 3.95892 3.39886C3.73337 3.41502 3.50631 3.41297 3.28009 3.41314C3.03821 3.41348 2.79516 3.41969 2.55446 3.40051C2.12878 3.3665 1.90154 3.12467 1.8842 2.6941C1.87259 2.40812 1.87899 2.12131 1.87781 1.83483C1.87714 1.65052 1.87848 1.46622 1.87696 1.28191C1.87663 1.24622 1.88588 1.22415 1.92089 1.21102C1.98738 1.18628 2.0505 1.14959 2.11867 1.13376C2.19745 1.11559 2.21866 1.07865 2.22001 0.99836C2.22724 0.567628 2.50985 0.18982 2.91719 0.0538167C3.57701 -0.166515 4.25533 0.316359 4.26526 1.01624C4.2661 1.07919 4.28126 1.10928 4.34488 1.12544C4.41524 1.14329 4.48106 1.17813 4.54974 1.20321C4.59299 1.21904 4.60831 1.24496 4.60781 1.29259C4.60511 1.52572 4.60662 1.75909 4.60662 1.99222H4.60409ZM2.56507 1.02815H3.91887C3.94546 0.669462 3.62144 0.343594 3.24222 0.343426C2.86299 0.343426 2.53931 0.668621 2.56507 1.02815Z" fill="#2CB588"/>
<path d="M5.80615 6.12337V4.10659C6.21685 4.03034 6.47573 4.29311 6.48314 4.59406C6.4892 4.83813 6.48853 5.0827 6.4828 5.32677C6.47422 5.68849 6.21415 6.01471 5.86674 6.10981C5.84822 6.11486 5.82904 6.11832 5.80615 6.12337Z" fill="#2CB588"/>
<path d="M5.62861 2.85998C5.62692 2.44675 5.48823 2.07598 5.23457 1.75095C5.15394 1.64777 5.05765 1.55683 4.96844 1.46021C4.96205 1.46425 4.95549 1.46819 4.94909 1.47223V1.54302C4.94909 1.87629 4.95128 2.20956 4.94791 2.54283C4.94673 2.65561 4.93967 2.76974 4.92065 2.88083C4.86073 3.23094 4.68954 3.50687 4.34987 3.64405C4.21622 3.69808 4.06827 3.73709 3.9252 3.74298C3.54143 3.7588 3.15664 3.755 2.77219 3.755C2.66144 3.755 2.54951 3.74903 2.44027 3.73219C2.01425 3.66621 1.71329 3.44361 1.5958 3.01675C1.5586 2.88142 1.54128 2.73697 1.53825 2.59626C1.53017 2.24312 1.53538 1.88958 1.53538 1.53644V1.45312C1.10869 1.82798 0.865466 2.2784 0.858733 2.82679C0.845772 3.88199 0.852665 4.93754 0.855021 5.99308C0.855863 6.3585 1.10431 6.68103 1.45543 6.78825C1.50374 6.80306 1.55322 6.81418 1.6022 6.82698H4.88261C4.8949 6.82277 4.90684 6.81684 4.91947 6.81465C5.32731 6.7448 5.6286 6.39996 5.62977 5.9864C5.63264 4.94433 5.63281 3.90205 5.62861 2.85998Z" fill="#2CB588"/>
</svg>
