<svg width="22" height="22" viewBox="0 0 22 22" fill="none" xmlns="http://www.w3.org/2000/svg">
<path d="M5.19288 21.253C3.89525 21.253 2.59768 21.253 1.30005 21.253C0.941125 21.253 0.830566 21.1426 0.830566 20.7837C0.830566 18.1884 0.830566 15.5655 0.830566 12.9702C0.830566 12.6113 0.941125 12.5009 1.30005 12.5009C3.89532 12.5009 6.49061 12.5009 9.08589 12.5009C9.44481 12.5009 9.5552 12.6113 9.5552 12.9702C9.5552 15.5655 9.5552 18.1884 9.5552 20.7837C9.5552 21.1426 9.44481 21.253 9.08589 21.253C7.78825 21.253 6.49052 21.253 5.19288 21.253Z" fill="#2CC295"/>
<path d="M16.0719 11.1753C16.0719 11.1753 15.8511 11.0648 15.7959 11.0096C14.2222 9.43589 12.6484 7.86227 11.0746 6.28854C10.8814 6.09527 10.8814 5.92958 11.0746 5.73632C12.6484 4.16259 14.1945 2.5888 15.7683 1.01507C15.9615 0.821801 16.1272 0.821801 16.3205 1.01507C17.8942 2.5888 19.4678 4.16259 21.0416 5.73632C21.2348 5.92958 21.2072 6.09513 21.0139 6.31601C20.1028 7.22711 19.2194 8.11072 18.3083 9.02183C17.6732 9.65685 17.0106 10.3193 16.3756 10.9543C16.2927 11.0372 16.1824 11.0924 16.0719 11.1753Z" fill="#2CC295"/>
<path d="M5.44144 10.0987C2.90139 10.0987 0.830566 8.02808 0.830566 5.48803C0.830566 2.94797 2.90136 0.877319 5.41381 0.877319C7.95386 0.877319 10.0245 2.92036 10.0245 5.48803C10.0245 8.02808 7.9815 10.0987 5.44144 10.0987Z" fill="#03624C"/>
<path d="M16.182 21.2528C14.6911 21.2528 13.2003 21.2528 11.6818 21.2528C11.2124 21.2528 11.0744 21.0042 11.3229 20.6177C12.8138 18.0224 14.3323 15.3996 15.8232 12.8044C16.0441 12.4454 16.32 12.4178 16.5409 12.8044C18.0594 15.4272 19.5503 18.0224 21.0412 20.6453C21.0965 20.7557 21.1518 20.9214 21.1241 21.0319C21.0965 21.2251 20.9032 21.2804 20.7099 21.2804C19.2466 21.2804 17.8111 21.2804 16.3478 21.2804C16.2926 21.2804 16.2097 21.2804 16.1545 21.2804L16.182 21.2528Z" fill="#03624C"/>
</svg>
