<svg width="25" height="25" viewBox="0 0 25 25" fill="none" xmlns="http://www.w3.org/2000/svg">
<path d="M23.6207 17.8566L12.3009 24.1516C11.9144 24.3725 11.445 24.3449 11.0861 24.1516L0.815379 17.9671C0.0147089 17.4978 0.0423452 16.3106 0.843015 15.8688L12.1629 9.57381C12.5495 9.35294 13.0187 9.38054 13.3776 9.57381L23.6483 15.7584C24.449 16.2278 24.4214 17.4149 23.6207 17.8566Z" fill="#2CC295"/>
<path d="M23.6207 13.4669L12.3009 19.7617C11.9144 19.9826 11.445 19.955 11.0861 19.7617L0.815379 13.5773C0.0147089 13.1079 0.0423452 11.9207 0.843015 11.4789L12.1629 5.1841C12.5495 4.96323 13.0187 4.99083 13.3776 5.1841L23.6483 11.3686C24.449 11.8379 24.4214 13.0251 23.6207 13.4669Z" fill="#03624C"/>
<path d="M23.6207 9.04947L12.3009 15.3443C11.9144 15.5652 11.445 15.5376 11.0861 15.3443L0.815379 9.15985C0.0147089 8.69049 0.0423452 7.50326 0.843015 7.06151L12.1629 0.766681C12.5495 0.545806 13.0187 0.573415 13.3776 0.766681L23.6483 6.95114C24.449 7.4205 24.4214 8.60772 23.6207 9.04947Z" fill="#2CC295"/>
</svg>
