<svg width="78" height="92" viewBox="0 0 78 92" fill="none" xmlns="http://www.w3.org/2000/svg">
<path d="M14.7597 91.6181C13.7239 91.3941 12.66 91.254 11.6241 90.9461C5.04478 89.0983 0.901204 84.0868 0.593236 77.2275C0.285268 70.1443 1.06923 63.173 3.78494 56.5657C5.52076 52.2821 8.06846 48.5865 12.324 46.3187C14.9557 44.9189 17.7554 44.247 20.7231 44.331C21.647 44.331 22.6269 44.8069 23.4668 45.2829C24.8386 46.0108 26.0986 46.9347 27.4425 47.7466C35.1697 52.4781 42.8688 52.4781 50.5959 47.7466C51.6598 47.0747 52.7517 46.4587 53.7596 45.7028C55.6074 44.331 57.6232 44.163 59.8349 44.4709C65.8263 45.3388 70.054 48.5865 72.9097 53.794C75.4574 58.4135 76.6053 63.4529 77.1093 68.6324C77.3612 71.2921 77.5012 73.9798 77.4732 76.6675C77.3892 84.6467 71.8458 90.5821 63.8387 91.478C63.6427 91.478 63.4467 91.59 63.2507 91.646H14.7597V91.6181Z" fill="#F1F7F7"/>
<path d="M38.3892 44.1908C26.0145 44.1068 16.1036 34.2239 16.1875 22.0451C16.2715 9.81043 26.2104 0.095459 38.5011 0.095459C50.5679 0.095459 60.7589 10.0064 60.6469 22.2131C60.5349 34.4758 50.5959 44.2748 38.3892 44.1908Z" fill="#F1F7F7"/>
</svg>
