<svg width="37" height="29" viewBox="0 0 37 29" fill="none" xmlns="http://www.w3.org/2000/svg">
<path d="M9.90484 8.70242C11.413 6.97079 12.8933 5.2671 14.4014 3.5634C15.0997 2.75344 15.8259 1.9435 16.5241 1.13355C17.5016 0.0163672 18.9539 -0.0115623 19.9314 1.13355C22.0541 3.56341 24.1768 5.99324 26.2994 8.4231C26.3832 8.50689 26.4669 8.61865 26.5787 8.73037C27.8634 7.92042 29.1482 7.11048 30.4329 6.30052C31.2988 5.74193 32.1646 5.15542 33.0583 4.65269C34.5386 3.81481 36.2982 4.904 36.2423 6.6077C36.2423 7.08251 36.1306 7.55733 36.0468 8.03214C35.4603 11.7468 34.8737 15.4334 34.2593 19.148C34.2593 19.2877 34.2035 19.4273 34.1756 19.5949H2.27997C2.11239 18.6174 1.97279 17.6399 1.80522 16.6623C1.30249 13.4784 0.799789 10.2944 0.269129 7.13837C0.101552 6.16084 0.325008 5.32294 1.16289 4.76435C2.00078 4.20576 2.86652 4.28954 3.7044 4.84813C5.65947 6.07703 7.58668 7.30595 9.54174 8.53485C9.65346 8.5907 9.76519 8.67454 9.90484 8.75833V8.70242Z" fill="#2CC295"/>
<path d="M33.7844 22.1365C33.5889 23.3933 33.3933 24.6222 33.1699 25.8511C32.9185 27.3035 31.7735 28.309 30.2932 28.3927C30.2094 28.3927 30.0976 28.3927 30.0138 28.3927C22.1656 28.3927 14.3176 28.3927 6.44148 28.3927C4.73778 28.3927 3.5647 27.4152 3.25748 25.7394C3.03404 24.5664 2.8664 23.3654 2.6709 22.1365H33.7564H33.7844Z" fill="#03624C"/>
</svg>
