<svg width="36" height="24" viewBox="0 0 36 24" fill="none" xmlns="http://www.w3.org/2000/svg">
<path d="M34.3622 0.529422C27.4078 0.529422 20.4812 0.529422 13.5267 0.529422H11.0689V3.48994C11.0689 3.71338 11.0131 3.90886 10.9293 4.07644C10.7617 4.41159 10.4266 4.6071 10.0356 4.6071C9.44904 4.6071 9.00218 4.13232 9.00218 3.48994V0.529422C8.86253 0.529422 8.7508 0.529422 8.63908 0.529422H1.90798C1.09802 0.529422 0.707031 0.920414 0.707031 1.73037V7.53975C0.707031 8.32178 1.07024 8.68484 1.88019 8.7407C3.5001 8.82449 4.81276 10.1651 4.81276 11.813C4.81276 13.4608 3.50008 14.8293 1.85224 14.8851C1.07021 14.9131 0.707031 15.3041 0.707031 16.0862V21.8955C0.707031 22.6775 1.09817 23.0685 1.88019 23.0685C4.11455 23.0685 6.34881 23.0685 8.58317 23.0685H8.91831V20.7503C8.91831 20.499 8.91831 20.2756 8.91831 20.0242C8.91831 19.4098 9.3931 18.9628 9.95169 18.9908C10.3986 18.9908 10.7617 19.2701 10.9014 19.689C10.9293 19.8007 10.9573 19.9125 10.9573 19.9963C10.9573 21.0017 10.9573 22.0072 10.9573 23.0685H13.4988C20.4532 23.0685 27.4077 23.0685 34.3343 23.0685C34.9766 23.0685 35.4235 22.9009 35.7028 22.3144V1.25562C35.4235 0.669096 34.9487 0.501465 34.3343 0.501465L34.3622 0.529422ZM10.9851 15.9186C10.9851 15.9186 10.9852 16.142 10.9293 16.2258C10.7897 16.6447 10.3986 16.924 9.95169 16.952C9.3931 16.952 8.94624 16.5051 8.91831 15.9186C8.91831 15.5555 8.91831 15.2203 8.91831 14.8573C8.91831 14.5221 8.91831 14.1869 8.91831 13.8797C8.91831 13.2932 9.3931 12.8463 9.95169 12.8463C10.3986 12.8463 10.7617 13.1256 10.9014 13.5446C10.9293 13.6563 10.9573 13.768 10.9573 13.8518C10.9573 14.5221 10.9573 15.2203 10.9573 15.8906L10.9851 15.9186ZM10.9851 8.76857C10.9851 9.10373 10.9851 9.4389 10.9851 9.74612C10.9851 9.85784 10.9852 9.9696 10.9293 10.0534C10.7897 10.5003 10.3986 10.7795 9.95169 10.7795C9.3931 10.7795 8.94627 10.3326 8.94627 9.74612C8.94627 9.04788 8.94627 8.37763 8.94627 7.70732C8.94627 7.1208 9.39312 6.67386 9.97964 6.67386C10.4265 6.67386 10.8176 6.95318 10.9573 7.40005C10.9852 7.48384 11.013 7.59558 11.013 7.67937C11.013 8.04245 11.013 8.37762 11.013 8.7407L10.9851 8.76857ZM17.2692 7.67937C17.2692 6.0036 18.6658 4.63506 20.3415 4.63506C22.0452 4.63506 23.4137 6.03149 23.4137 7.73519C23.4137 9.41096 22.0173 10.7795 20.3415 10.7795C18.6378 10.7795 17.2692 9.35514 17.2692 7.67937ZM19.755 18.7953C19.2522 18.4602 19.1686 17.8457 19.5317 17.2871C22.2408 13.2373 24.9219 9.18758 27.6311 5.16573C27.687 5.08194 27.7149 5.02606 27.7707 4.9702C28.05 4.66298 28.469 4.55124 28.888 4.69089C29.279 4.83054 29.5583 5.22154 29.6142 5.64048C29.5024 5.86392 29.4466 6.11534 29.307 6.31085C26.6257 10.3327 23.9445 14.3824 21.2353 18.4043C20.8443 18.9629 20.2577 19.1305 19.727 18.7674L19.755 18.7953ZM28.5249 18.9908C26.8212 18.9908 25.4527 17.5943 25.4527 15.8906C25.4527 14.2149 26.8491 12.8184 28.5249 12.8463C30.2286 12.8463 31.597 14.2428 31.597 15.9465C31.597 17.6222 30.2006 18.9908 28.4969 18.9908H28.5249Z" fill="#2CC295"/>
<path d="M35.7308 1.31119V22.3701C35.4515 22.9566 34.9768 23.1241 34.3623 23.1241C27.4079 23.1241 20.4534 23.1241 13.5269 23.1241V0.557129C20.4813 0.557129 27.4079 0.557129 34.3623 0.557129C35.0047 0.557129 35.4515 0.724675 35.7308 1.31119Z" fill="#03624C"/>
<path d="M29.6422 5.66834C29.5305 5.89177 29.4745 6.14311 29.3348 6.33862C26.6536 10.3884 23.9725 14.4103 21.2633 18.4321C20.8723 19.0187 20.2578 19.1583 19.755 18.7952C19.2523 18.4601 19.1685 17.8456 19.5595 17.287C22.2407 13.2372 24.9499 9.18747 27.6312 5.16563C27.687 5.10977 27.7149 5.02596 27.7708 4.9701C28.0501 4.66287 28.497 4.55114 28.888 4.69079C29.2791 4.83043 29.5584 5.22146 29.6142 5.66834H29.6422Z" fill="#2CC295"/>
<path d="M20.3695 5.64038C19.2244 5.64038 18.3027 6.56208 18.3027 7.67926C18.3027 8.82437 19.2244 9.77398 20.3695 9.77398C21.5146 9.77398 22.4362 8.85227 22.4362 7.73509C22.4362 6.58998 21.5146 5.64038 20.3695 5.64038ZM20.3695 8.40546C20.0064 8.40546 19.6992 8.09823 19.6992 7.70722C19.6992 7.31621 20.0064 7.00898 20.3974 7.00898C20.7605 7.00898 21.0957 7.31618 21.0957 7.67926C21.0957 8.07028 20.7885 8.3775 20.3974 8.3775L20.3695 8.40546Z" fill="#2CC295"/>
<path d="M20.3695 7.03715C20.7326 7.03715 21.0677 7.34443 21.0677 7.70751C21.0677 8.09853 20.7605 8.40575 20.3695 8.40575C20.0064 8.40575 19.6992 8.09853 19.6992 7.70751C19.6992 7.34443 20.0064 7.00928 20.3975 7.00928L20.3695 7.03715Z" fill="#2CC295"/>
<path d="M29.0834 14.354C27.9382 14.354 27.0166 15.2757 27.0166 16.3929C27.0166 17.538 27.9382 18.4876 29.0834 18.4876C30.2285 18.4876 31.1501 17.5659 31.1501 16.4487C31.1501 15.3036 30.2285 14.354 29.0834 14.354ZM29.0834 17.1191C28.7203 17.1191 28.4131 16.8119 28.4131 16.4208C28.4131 16.0298 28.7203 15.7226 29.1113 15.7226C29.4744 15.7226 29.8096 16.0298 29.8096 16.3929C29.8096 16.7839 29.5023 17.0911 29.1113 17.0911L29.0834 17.1191Z" fill="#2CC295"/>
<path d="M29.0555 15.7508C29.4186 15.7508 29.7538 16.0581 29.7538 16.4211C29.7538 16.8122 29.4465 17.1194 29.0555 17.1194C28.6925 17.1194 28.3853 16.8122 28.3853 16.4211C28.3853 16.0581 28.6925 15.7229 29.0835 15.7229L29.0555 15.7508Z" fill="#2CC295"/>
</svg>
