<svg width="9" height="9" viewBox="0 0 9 9" fill="none" xmlns="http://www.w3.org/2000/svg">
<path d="M5.98605 0C5.98822 0.00201139 5.98998 0.00504444 5.99249 0.00588252C6.46751 0.146848 6.63343 0.361891 6.63343 0.837083C6.63343 1.15052 6.63376 1.46397 6.63343 1.77742C6.63343 1.89005 6.60541 1.91619 6.48539 1.91619C4.75392 1.91636 3.02241 1.91653 1.29077 1.91468C1.25608 1.91468 1.22122 1.88904 1.18652 1.8753C1.21217 1.85183 1.2335 1.81898 1.26417 1.80657C2.6931 1.22545 4.12289 0.645827 5.55299 0.0668817C5.61786 0.040566 5.68642 0.0221253 5.7533 0C5.83091 0 5.90827 0 5.98605 0Z" fill="#03624C"/>
<path d="M3.79865 2.40111C4.98386 2.40111 6.16914 2.40078 7.35435 2.40129C7.73216 2.40145 8.01987 2.58381 8.1243 2.89641C8.15262 2.98106 8.16459 3.07358 8.16593 3.16259C8.17063 3.50134 8.16811 3.84044 8.16778 4.17919C8.16778 4.30658 8.14105 4.33105 8.00327 4.33121C7.47779 4.33138 6.95237 4.32985 6.42706 4.3317C6.02529 4.33321 5.72588 4.54256 5.63788 4.88333C5.62112 4.94836 5.61424 5.01727 5.61374 5.08448C5.61122 5.38669 5.61141 5.68891 5.61292 5.99095C5.6151 6.43614 5.94444 6.74488 6.41611 6.74522C6.94746 6.74555 7.47899 6.74521 8.01033 6.74537C8.13788 6.74537 8.16771 6.77353 8.16788 6.89522C8.16821 7.23699 8.16958 7.5786 8.16757 7.92037C8.16506 8.36757 7.83786 8.67682 7.36652 8.67699C5.17813 8.67749 2.98993 8.67749 0.801531 8.67699C0.327513 8.67699 0.000653037 8.36957 0.000485421 7.92254C-0.000352659 6.12922 0.000113195 4.3359 0.000280811 2.54275C0.000280811 2.42357 0.0245059 2.40095 0.153738 2.40095C1.36879 2.40079 2.58343 2.40111 3.79865 2.40111Z" fill="#03624C"/>
<path d="M7.40378 6.26308C7.08163 6.26308 6.75947 6.26357 6.43731 6.2629C6.21807 6.26239 6.12633 6.17608 6.126 5.97092C6.1255 5.67742 6.12516 5.38393 6.126 5.09043C6.1265 4.90656 6.22393 4.81402 6.41736 4.81385C7.07358 4.81335 7.73 4.81335 8.38622 4.81385C8.57445 4.81402 8.67445 4.90773 8.67512 5.0844C8.67613 5.38627 8.67613 5.6883 8.67512 5.99018C8.67462 6.16819 8.57807 6.26121 8.38816 6.26239C8.05997 6.26456 7.73198 6.26291 7.40378 6.26308Z" fill="#03624C"/>
</svg>
