<svg width="22" height="29" viewBox="0 0 22 29" fill="none" xmlns="http://www.w3.org/2000/svg">
<path d="M10.6501 28.1661C10.4269 27.9708 10.148 27.8036 9.95276 27.5804C7.60976 24.8469 5.43412 21.9739 3.64898 18.822C2.58904 17.009 1.69646 15.1123 1.11071 13.0761C0.246028 10.0078 0.664426 7.13486 2.42168 4.51292C4.09526 2.00256 6.46615 0.524183 9.47859 0.105788C12.4073 -0.312606 15.0572 0.440613 17.3444 2.30944C19.3527 3.95512 20.5521 6.10279 20.9705 8.66894C21.2773 10.6772 20.9147 12.6019 20.2174 14.4707C19.2969 16.9811 17.958 19.2684 16.4797 21.4998C15.0572 23.6197 13.4952 25.6558 11.8216 27.5804C11.6264 27.8036 11.3474 27.9708 11.1243 28.1661H10.678H10.6501ZM10.8453 15.3354C13.6346 15.3912 15.9498 13.1039 16.0055 10.2589C16.0613 7.44167 13.7741 5.09871 10.929 5.07081C8.13974 5.01503 5.79672 7.30227 5.76882 10.1473C5.71304 12.9645 8.00026 15.2796 10.8732 15.3354H10.8453Z" fill="#00DF82"/>
</svg>
