<svg width="62" height="62" viewBox="0 0 62 62" fill="none" xmlns="http://www.w3.org/2000/svg">
<g clip-path="url(#clip0_255_191)">
<path d="M20.9235 48.8022C13.3646 48.8556 6.79114 43.1798 6.19355 36.0162C5.38322 28.2479 11.8597 21.0932 20.182 20.7761C26.2048 20.4204 32.1181 23.8763 34.4928 29.1223C38.7885 38.3191 31.6112 48.8259 20.9579 48.8022H20.9235Z" fill="white"/>
<path d="M51.1751 46.0514C50.9717 45.4675 50.6495 44.9192 50.2991 44.3946C49.3167 42.9453 48.1872 41.3626 47.089 40.0526C46.5571 39.4006 45.9283 38.6003 45.9564 37.7645C45.9752 36.5316 47.2517 36.4337 48.2904 36.6471C49.1727 36.7331 51.7539 37.4859 50.9499 35.8202C50.3241 34.5428 49.2228 33.6033 48.0182 32.7378C46.9764 31.9732 45.6748 31.3181 44.8708 30.3342C44.0198 29.2849 44.2043 28.0431 45.4996 27.5896C46.2537 27.2755 47.3237 27.1006 47.8305 26.4663C48.7441 25.1711 46.6885 24.3353 45.5966 24.1782C44.5141 23.9797 43.4097 23.8819 42.3897 23.3365C41.3635 22.8238 40.403 21.7094 40.8973 20.5772C41.3322 19.5635 42.5305 19.0093 43.3127 18.1527C44.5235 16.9672 44.3451 15.2748 43.5317 13.9263C42.2395 11.7538 40.4155 9.85694 38.2629 8.45207C37.024 7.64591 35.616 7.09463 34.1393 6.78936C27.1247 5.37857 19.5345 7.15095 13.9028 11.324C7.0853 16.3596 2.69572 24.2701 0.740274 32.1421C-0.401707 37.1243 -0.404835 42.7171 2.51112 47.1688C7.71105 54.7385 17.5227 55.9536 25.7543 52.2903C30.7321 49.8896 35.0716 51.0959 40.0776 52.6608C42.0361 53.1973 44.2388 53.7278 46.2318 53.2714C49.4606 52.4978 52.314 49.4065 51.1908 46.0781L51.1814 46.0514H51.1751ZM20.6107 48.8019C13.0518 48.8552 6.47833 43.1795 5.88075 36.0158C5.07041 28.2476 11.5468 21.0929 19.8692 20.7757C25.892 20.4201 31.8053 23.8759 34.18 29.1219C38.4757 38.3187 31.2984 48.8256 20.6451 48.8019H20.6107Z" fill="#00FF8B"/>
<path d="M51.1751 46.0514C50.9717 45.4675 50.6495 44.9192 50.2991 44.3946C49.3167 42.9453 48.1872 41.3626 47.089 40.0526C46.5571 39.4006 45.9283 38.6003 45.9564 37.7645C45.9752 36.5316 47.2517 36.4337 48.2904 36.6471C49.1727 36.7331 51.7539 37.4859 50.9499 35.8202C50.3241 34.5428 49.2228 33.6033 48.0182 32.7378C46.9764 31.9732 45.6748 31.3181 44.8708 30.3342C44.0198 29.2849 44.2043 28.0431 45.4996 27.5896C46.2537 27.2755 47.3237 27.1006 47.8305 26.4663C48.7441 25.1711 46.6885 24.3353 45.5966 24.1782C44.5141 23.9797 43.4097 23.8819 42.3897 23.3365C41.3635 22.8238 40.403 21.7094 40.8973 20.5772C41.3322 19.5635 42.5305 19.0093 43.3127 18.1527C44.5235 16.9672 44.3451 15.2748 43.5317 13.9263C42.2395 11.7538 40.4155 9.85694 38.2629 8.45207C37.024 7.64591 35.616 7.09463 34.1393 6.78936C27.1247 5.37857 19.5345 7.15095 13.9028 11.324C7.0853 16.3596 2.69572 24.2701 0.740274 32.1421C-0.401707 37.1243 -0.404835 42.7171 2.51112 47.1688C7.71105 54.7385 17.5227 55.9536 25.7543 52.2903C30.7321 49.8896 35.0716 51.0959 40.0776 52.6608C42.0361 53.1973 44.2388 53.7278 46.2318 53.2714C49.4606 52.4978 52.314 49.4065 51.1908 46.0781L51.1814 46.0514H51.1751ZM20.6107 48.8019C13.0518 48.8552 6.47833 43.1795 5.88075 36.0158C5.07041 28.2476 11.5468 21.0929 19.8692 20.7757C25.892 20.4201 31.8053 23.8759 34.18 29.1219C38.4757 38.3187 31.2984 48.8256 20.6451 48.8019H20.6107Z" fill="url(#paint0_radial_255_191)"/>
<mask id="mask0_255_191" style="mask-type:luminance" maskUnits="userSpaceOnUse" x="0" y="6" width="52" height="49">
<mask id="mask1_255_191" style="mask-type:luminance" maskUnits="userSpaceOnUse" x="0" y="6" width="52" height="49">
<path d="M51.1751 46.0514C50.9717 45.4675 50.6495 44.9192 50.2991 44.3946C49.3167 42.9453 48.1872 41.3626 47.089 40.0526C46.5571 39.4006 45.9283 38.6003 45.9564 37.7645C45.9752 36.5316 47.2517 36.4337 48.2904 36.6471C49.1727 36.7331 51.7539 37.4859 50.9499 35.8202C50.3241 34.5428 49.2228 33.6033 48.0182 32.7378C46.9764 31.9732 45.6748 31.3181 44.8708 30.3342C44.0198 29.2849 44.2043 28.0431 45.4996 27.5896C46.2537 27.2755 47.3237 27.1006 47.8305 26.4663C48.7441 25.1711 46.6885 24.3353 45.5966 24.1782C44.5141 23.9797 43.4097 23.8819 42.3897 23.3365C41.3635 22.8238 40.403 21.7094 40.8973 20.5772C41.3322 19.5635 42.5305 19.0093 43.3127 18.1527C44.5235 16.9672 44.3451 15.2748 43.5317 13.9263C42.2395 11.7538 40.4155 9.85694 38.2629 8.45207C37.024 7.64591 35.616 7.09463 34.1393 6.78936C27.1247 5.37857 19.5345 7.15095 13.9028 11.324C7.0853 16.3596 2.69572 24.2701 0.740274 32.1421C-0.401707 37.1243 -0.404835 42.7171 2.51112 47.1688C7.71105 54.7385 17.5227 55.9536 25.7543 52.2903C30.7321 49.8896 35.0716 51.0959 40.0776 52.6608C42.0361 53.1973 44.2388 53.7278 46.2318 53.2714C49.4606 52.4978 52.314 49.4065 51.1908 46.0781L51.1814 46.0514H51.1751ZM20.6107 48.8019C13.0518 48.8552 6.47833 43.1795 5.88075 36.0158C5.07041 28.2476 11.5468 21.0929 19.8692 20.7757C25.892 20.4201 31.8053 23.8759 34.18 29.1219C38.4757 38.3187 31.2984 48.8256 20.6451 48.8019H20.6107Z" fill="white"/>
</mask>
<g mask="url(#mask1_255_191)">
<path d="M51.1751 46.0514C50.9718 45.4675 50.6495 44.9192 50.2991 44.3946C49.3167 42.9453 48.1872 41.3626 47.089 40.0526C46.5571 39.4006 45.9283 38.6003 45.9564 37.7645C45.9752 36.5315 47.2517 36.4337 48.2905 36.6471C49.1727 36.7331 51.7539 37.4859 50.9499 35.8202C50.3241 34.5428 49.2228 33.6033 48.0182 32.7378C46.9764 31.9732 45.6748 31.3181 44.8708 30.3341C44.0198 29.2849 44.2043 28.0431 45.4996 27.5896C46.2537 27.2755 47.3237 27.1006 47.8305 26.4663C48.7441 25.1711 46.6885 24.3353 45.5966 24.1782C44.5141 23.9797 43.4097 23.8819 42.3897 23.3365C41.3635 22.8238 40.403 21.7094 40.8973 20.5772C41.3322 19.5635 42.5305 19.0093 43.3127 18.1527C44.5235 16.9672 44.3451 15.2748 43.5317 13.9263C42.2395 11.7538 40.4155 9.85694 38.2629 8.45207C37.024 7.64591 35.616 7.09463 34.1393 6.78936C27.1247 5.37857 19.5345 7.15095 13.9028 11.324C7.0853 16.3596 2.69572 24.2701 0.740274 32.1421C-0.401707 37.1243 -0.404835 42.7171 2.51113 47.1688C7.71105 54.7385 17.5227 55.9536 25.7543 52.2903C30.7321 49.8896 35.0716 51.0959 40.0776 52.6608C42.0362 53.1973 44.2388 53.7278 46.2318 53.2714C49.4606 52.4978 52.314 49.4065 51.1908 46.0781L51.1814 46.0514H51.1751ZM20.6107 48.8019C13.0518 48.8552 6.47833 43.1795 5.88075 36.0158C5.07041 28.2476 11.5468 21.0929 19.8692 20.7757C25.892 20.4201 31.8053 23.8759 34.18 29.1219C38.4757 38.3187 31.2984 48.8256 20.6451 48.8019H20.6107Z" fill="white"/>
</g>
</mask>
<g mask="url(#mask0_255_191)">
<path d="M0.0235983 42.6728C4.18166 51.9585 16.0645 55.0943 22.4283 51.3954C28.7921 47.6965 29.1957 47.2875 34.2955 47.4416C40.603 47.5957 43.9914 52.9218 52.0979 47.6165C60.3671 42.2015 51.4346 54.5519 51.4346 54.5519L22.3595 56.5673L1.09049 52.8032C1.09049 52.8032 -2.33858 37.4001 0.0235983 42.6728Z" fill="#1BAB93"/>
<path d="M0.0235983 42.6728C4.18166 51.9585 16.0645 55.0943 22.4283 51.3954C28.7921 47.6965 29.1957 47.2875 34.2955 47.4416C40.603 47.5957 43.9914 52.9218 52.0979 47.6165C60.3671 42.2015 51.4346 54.5519 51.4346 54.5519L22.3595 56.5673L1.09049 52.8032C1.09049 52.8032 -2.33858 37.4001 0.0235983 42.6728Z" fill="url(#paint1_linear_255_191)"/>
<path d="M39.2828 8.23562C44.3481 14.5427 41.9703 16.9049 40.5687 18.5528C39.167 20.2007 40.4685 21.3832 40.9629 21.9997L44.7111 20.8823L48.7847 12.1627L40.0149 6.73295C40.0149 6.73295 36.4669 4.72939 39.2796 8.23266L39.2828 8.23562Z" fill="url(#paint2_linear_255_191)"/>
<path d="M47.9523 24.8628C47.9523 24.8628 48.1651 26.2084 45.6402 26.6707C43.1153 27.1331 44.4513 29.5664 44.4513 29.5664L47.9555 29.1248C47.9555 29.1248 48.4404 26.4307 48.4811 26.2706C48.5218 26.1106 47.9492 24.8628 47.9492 24.8628H47.9523Z" fill="url(#paint3_linear_255_191)"/>
<path d="M51.8351 35.98C51.8351 35.98 50.7526 37.2248 47.8898 35.3368C45.027 33.4488 45.9813 38.2029 45.9813 38.2029L50.7119 38.8549L51.8351 35.98Z" fill="url(#paint4_linear_255_191)"/>
</g>
<path d="M32.966 35.8323C33.0536 43.396 24.9972 49.0036 17.3944 46.7066C13.7244 45.6485 10.7459 42.9011 9.53823 39.4482C9.08457 38.1293 8.81863 36.6533 8.95629 35.2573C9.11273 33.9265 10.1702 34.6438 11.0494 35.0617C12.1726 35.6041 13.4992 35.8086 14.7507 35.6337C18.2673 35.2188 20.689 31.7511 19.8192 28.5353C19.6189 27.5306 18.9025 26.5673 18.3456 25.7849C17.7793 24.9313 18.4457 24.6556 19.3029 24.5341C26.3801 23.4968 33.0849 29.0658 32.966 35.8056V35.8382V35.8323Z" fill="url(#paint5_radial_255_191)"/>
<path d="M61.7185 26.3506C60.5891 28.4224 58.0517 27.2931 56.1369 26.8545C55.1201 26.5374 52.395 26.0987 52.0039 25.1562C51.9444 24.5753 52.8111 24.187 53.2522 23.8314C53.7904 23.4579 54.3066 23.0311 54.6508 22.4888C55.7865 20.666 54.8979 17.8385 52.7297 17.0056C52.0977 16.7359 51.2561 16.5344 50.6898 16.2143C49.7919 15.6778 50.6835 15.2599 51.4438 15.005C53.4368 14.4745 55.8115 14.2463 57.6887 15.2155C60.8081 16.8812 62.8386 23.1704 61.731 26.3299L61.7185 26.3536V26.3506Z" fill="#12C6A3"/>
<path d="M56.9099 37.8238C56.0902 38.4521 54.9826 38.2209 54.1629 37.7023C53.7343 37.4207 53.243 37.0769 53.2368 36.5701C53.2462 36.4752 53.2837 36.3893 53.3432 36.3092C53.6247 35.9506 54.4851 35.6394 54.7605 35.0763C55.5458 33.7811 55.1516 31.3715 53.34 29.4539C52.8613 28.9471 52.27 28.461 51.8695 28.0698C51.4221 27.637 51.2219 27.3229 51.4096 27.151C51.5535 27.0117 51.9509 26.9613 52.4922 26.982C54.482 27.145 56.985 27.56 58.177 29.2375C59.2408 30.8143 59.0656 33.3039 58.4774 35.1504C58.1489 36.1047 57.7734 37.1688 56.9318 37.8001L56.9099 37.8178V37.8238Z" fill="#12C6A3"/>
<path d="M56.1214 40.6427C56.3999 42.3706 54.8074 45.7405 53.1116 46.5526C52.3138 46.7215 53.1836 45.0499 53.3181 44.5757C53.6904 43.4731 53.85 42.2016 53.4433 40.6516C53.3557 40.0529 52.3764 38.0374 53.2962 37.8685C53.753 37.8003 54.6791 38.3042 55.2579 38.9147C55.7178 39.383 56.0307 39.9728 56.1183 40.6101V40.6427H56.1214Z" fill="#12C6A3"/>
</g>
<defs>
<radialGradient id="paint0_radial_255_191" cx="0" cy="0" r="1" gradientUnits="userSpaceOnUse" gradientTransform="translate(-11.6619 30.7609) scale(70.4836 66.7695)">
<stop offset="0.6" stop-color="#00DF82"/>
<stop offset="0.93" stop-color="#12C6A3"/>
</radialGradient>
<linearGradient id="paint1_linear_255_191" x1="0.339598" y1="49.0717" x2="56.7534" y2="49.0717" gradientUnits="userSpaceOnUse">
<stop offset="0.36" stop-color="#12C6A3"/>
<stop offset="0.41" stop-color="#10BE9C" stop-opacity="0.8836"/>
<stop offset="0.5" stop-color="#0EAB8B" stop-opacity="0.6241"/>
<stop offset="0.62" stop-color="#098C70" stop-opacity="0.2916"/>
<stop offset="0.77" stop-color="#03624C" stop-opacity="0.2"/>
</linearGradient>
<linearGradient id="paint2_linear_255_191" x1="44.7486" y1="3.1467" x2="40.0845" y2="28.4873" gradientUnits="userSpaceOnUse">
<stop offset="0.48" stop-color="#12C6A3"/>
<stop offset="0.57" stop-color="#0FB393"/>
<stop offset="0.74" stop-color="#08856A"/>
<stop offset="0.85" stop-color="#03624C"/>
</linearGradient>
<linearGradient id="paint3_linear_255_191" x1="48.0931" y1="22.4384" x2="45.2073" y2="31.9365" gradientUnits="userSpaceOnUse">
<stop offset="0.48" stop-color="#12C6A3"/>
<stop offset="0.57" stop-color="#0FB393"/>
<stop offset="0.74" stop-color="#08856A"/>
<stop offset="0.85" stop-color="#03624C"/>
</linearGradient>
<linearGradient id="paint4_linear_255_191" x1="50.9966" y1="31.8009" x2="47.1925" y2="40.4" gradientUnits="userSpaceOnUse">
<stop offset="0.48" stop-color="#12C6A3"/>
<stop offset="0.57" stop-color="#0FB393"/>
<stop offset="0.74" stop-color="#08856A"/>
<stop offset="0.85" stop-color="#03624C"/>
</linearGradient>
<radialGradient id="paint5_radial_255_191" cx="0" cy="0" r="1" gradientUnits="userSpaceOnUse" gradientTransform="translate(20.9424 35.8175) scale(12.0362 11.4019)">
<stop offset="0.34" stop-color="#042222"/>
<stop offset="0.56" stop-color="#03342D"/>
<stop offset="1" stop-color="#03624C"/>
</radialGradient>
<clipPath id="clip0_255_191">
<rect width="61" height="50" fill="white" transform="translate(0.5 6)"/>
</clipPath>
</defs>
</svg>
