<svg width="99" height="106" viewBox="0 0 99 106" fill="none" xmlns="http://www.w3.org/2000/svg">
<path d="M8.525 99.7249C3.85 99.7249 0.95 97.7249 0.7625 94.1624L0.75 93.9249H5.625L5.65 94.0374C5.8625 95.0124 7.0875 95.6624 8.5875 95.6624C10.175 95.6624 11.15 95.0124 11.15 94.1124V94.0999C11.15 93.2499 10.425 92.8999 8.425 92.5374L6.6125 92.2124C3.025 91.5749 1.0625 89.7624 1.0625 86.9624V86.9499C1.0625 83.3249 4.1875 81.0374 8.4625 81.0374C13.2875 81.0374 15.85 83.1874 16 86.5624L16.0125 86.8374H11.1375L11.125 86.7124C11.025 85.7249 9.975 85.0999 8.525 85.0999C7.0625 85.0999 6.3125 85.7374 6.3125 86.5624V86.5749C6.3125 87.3874 7.0875 87.7749 8.8875 88.0999L10.7 88.4249C14.5625 89.1249 16.4 90.6999 16.4 93.6249V93.6374C16.4 97.3624 13.5 99.7249 8.525 99.7249ZM18.375 99.3999V81.3624H22.7875L29.1625 90.5874H29.25V81.3624H34.55V99.3999H30.1875L23.7625 90.0249H23.675V99.3999H18.375ZM36.175 99.3999L42.0625 81.3624H48.7125L54.6 99.3999H49.025L48.0875 95.8124H42.6875L41.75 99.3999H36.175ZM45.3375 85.6624L43.6625 92.0749H47.1125L45.4375 85.6624H45.3375ZM56.225 99.3999V81.3624H64.2875C68.5125 81.3624 71.175 83.9374 71.175 87.9374V87.9624C71.175 91.9624 68.5125 94.4749 64.2875 94.4749H61.525V99.3999H56.225ZM63.025 85.3499H61.525V90.5624H63.025C64.775 90.5624 65.825 89.6874 65.825 87.9624V87.9374C65.825 86.2124 64.775 85.3499 63.025 85.3499ZM73.05 99.3999V81.3624H80.7625C86.225 81.3624 89.45 84.4624 89.45 90.2249V90.2499C89.45 96.0249 86.225 99.3999 80.7625 99.3999H73.05ZM78.35 95.1874H80.0125C82.6625 95.1874 84.05 93.5749 84.05 90.2499V90.2249C84.05 87.1999 82.5375 85.5749 80.0125 85.5749H78.35V95.1874ZM91.525 99.3999V81.3624H96.825V99.3999H91.525Z" fill="url(#paint0_linear_399_12199)"/>
<g clip-path="url(#clip0_399_12199)">
<path d="M38.5134 53.4169C28.9966 53.4834 20.7205 46.4001 19.9681 37.4599C18.9479 27.7651 27.1019 18.836 37.5799 18.4403C45.1626 17.9964 52.6075 22.3093 55.5973 28.8563C61.0057 40.3339 51.9694 53.4465 38.5568 53.4169H38.5134Z" fill="white"/>
<path d="M76.6005 49.9843C76.3444 49.2556 75.9387 48.5713 75.4975 47.9166C74.2606 46.1079 72.8386 44.1327 71.456 42.4978C70.7863 41.684 69.9946 40.6853 70.03 39.6422C70.0537 38.1035 71.6608 37.9814 72.9686 38.2478C74.0794 38.355 77.3292 39.2946 76.3168 37.2158C75.529 35.6216 74.1425 34.449 72.6259 33.3689C71.3142 32.4146 69.6755 31.5972 68.6632 30.3692C67.5917 29.0598 67.8241 27.5099 69.4549 26.944C70.4043 26.5519 71.7514 26.3337 72.3896 25.5421C73.5398 23.9257 70.9518 22.8826 69.577 22.6866C68.2141 22.4388 66.8236 22.3167 65.5395 21.6361C64.2474 20.9962 63.0381 19.6054 63.6605 18.1924C64.2081 16.9274 65.7167 16.2357 66.7015 15.1668C68.2259 13.6872 68.0014 11.5751 66.9772 9.89216C65.3504 7.18088 63.0539 4.81359 60.3438 3.06032C58.7839 2.05423 57.0113 1.36624 55.1521 0.985252C46.3206 -0.775415 36.7643 1.43651 29.674 6.64454C21.0907 12.9289 15.5641 22.8012 13.1022 32.6255C11.6644 38.8433 11.6605 45.8231 15.3317 51.3788C21.8785 60.8257 34.2315 62.3423 44.5953 57.7705C50.8624 54.7744 56.3259 56.2798 62.6285 58.2328C65.0944 58.9023 67.8675 59.5644 70.3767 58.9948C74.4418 58.0294 78.0343 54.1714 76.6202 50.0176L76.6083 49.9843H76.6005ZM38.1194 53.4169C28.6025 53.4835 20.3265 46.4001 19.5741 37.4599C18.5539 27.7651 26.7078 18.836 37.1858 18.4403C44.7686 17.9964 52.2135 22.3093 55.2033 28.8563C60.6117 40.3339 51.5754 53.4465 38.1627 53.4169H38.1194Z" fill="#00FF8B"/>
<path d="M76.6005 49.9843C76.3444 49.2556 75.9387 48.5713 75.4975 47.9166C74.2606 46.1079 72.8386 44.1327 71.456 42.4978C70.7863 41.684 69.9946 40.6853 70.03 39.6422C70.0537 38.1035 71.6608 37.9814 72.9686 38.2478C74.0794 38.355 77.3292 39.2946 76.3168 37.2158C75.529 35.6216 74.1425 34.449 72.6259 33.3689C71.3142 32.4146 69.6755 31.5972 68.6632 30.3692C67.5917 29.0598 67.8241 27.5099 69.4549 26.944C70.4043 26.5519 71.7514 26.3337 72.3896 25.5421C73.5398 23.9257 70.9518 22.8826 69.577 22.6866C68.2141 22.4388 66.8236 22.3167 65.5395 21.6361C64.2474 20.9962 63.0381 19.6054 63.6605 18.1924C64.2081 16.9274 65.7167 16.2357 66.7015 15.1668C68.2259 13.6872 68.0014 11.5751 66.9772 9.89216C65.3504 7.18088 63.0539 4.81359 60.3438 3.06032C58.7839 2.05423 57.0113 1.36624 55.1521 0.985252C46.3206 -0.775415 36.7643 1.43651 29.674 6.64454C21.0907 12.9289 15.5641 22.8012 13.1022 32.6255C11.6644 38.8433 11.6605 45.8231 15.3317 51.3788C21.8785 60.8257 34.2315 62.3423 44.5953 57.7705C50.8624 54.7744 56.3259 56.2798 62.6285 58.2328C65.0944 58.9023 67.8675 59.5644 70.3767 58.9948C74.4418 58.0294 78.0343 54.1714 76.6202 50.0176L76.6083 49.9843H76.6005ZM38.1194 53.4169C28.6025 53.4835 20.3265 46.4001 19.5741 37.4599C18.5539 27.7651 26.7078 18.836 37.1858 18.4403C44.7686 17.9964 52.2135 22.3093 55.2033 28.8563C60.6117 40.3339 51.5754 53.4465 38.1627 53.4169H38.1194Z" fill="url(#paint1_radial_399_12199)"/>
<mask id="mask0_399_12199" style="mask-type:luminance" maskUnits="userSpaceOnUse" x="12" y="0" width="65" height="61">
<mask id="mask1_399_12199" style="mask-type:luminance" maskUnits="userSpaceOnUse" x="12" y="0" width="65" height="61">
<path d="M76.6005 49.9843C76.3444 49.2556 75.9387 48.5713 75.4975 47.9166C74.2606 46.1079 72.8386 44.1327 71.456 42.4978C70.7863 41.684 69.9946 40.6853 70.03 39.6422C70.0537 38.1035 71.6608 37.9814 72.9686 38.2478C74.0794 38.355 77.3292 39.2946 76.3168 37.2158C75.529 35.6216 74.1425 34.449 72.6259 33.3689C71.3142 32.4146 69.6755 31.5972 68.6632 30.3692C67.5917 29.0598 67.8241 27.5099 69.4549 26.944C70.4043 26.5519 71.7514 26.3337 72.3896 25.5421C73.5398 23.9257 70.9518 22.8826 69.577 22.6866C68.2141 22.4388 66.8236 22.3167 65.5395 21.6361C64.2474 20.9962 63.0381 19.6054 63.6605 18.1924C64.2081 16.9274 65.7167 16.2357 66.7015 15.1668C68.2259 13.6872 68.0014 11.5751 66.9772 9.89216C65.3504 7.18088 63.0539 4.81359 60.3438 3.06032C58.7839 2.05423 57.0113 1.36624 55.1521 0.985252C46.3206 -0.775415 36.7643 1.43651 29.674 6.64454C21.0907 12.9289 15.5641 22.8012 13.1022 32.6255C11.6644 38.8433 11.6605 45.8231 15.3317 51.3788C21.8785 60.8257 34.2315 62.3423 44.5953 57.7705C50.8624 54.7744 56.3259 56.2798 62.6285 58.2328C65.0944 58.9023 67.8675 59.5644 70.3767 58.9948C74.4418 58.0294 78.0343 54.1714 76.6202 50.0176L76.6083 49.9843H76.6005ZM38.1194 53.4169C28.6025 53.4835 20.3265 46.4001 19.5741 37.4599C18.5539 27.7651 26.7078 18.836 37.1858 18.4403C44.7686 17.9964 52.2135 22.3093 55.2033 28.8563C60.6117 40.3339 51.5754 53.4465 38.1627 53.4169H38.1194Z" fill="white"/>
</mask>
<g mask="url(#mask1_399_12199)">
<path d="M76.6005 49.9843C76.3444 49.2556 75.9387 48.5713 75.4975 47.9166C74.2606 46.1079 72.8386 44.1327 71.456 42.4978C70.7863 41.684 69.9946 40.6853 70.03 39.6422C70.0537 38.1035 71.6608 37.9814 72.9686 38.2478C74.0794 38.355 77.3292 39.2946 76.3168 37.2158C75.529 35.6216 74.1425 34.449 72.6259 33.3689C71.3142 32.4146 69.6755 31.5972 68.6632 30.3692C67.5917 29.0598 67.8241 27.5099 69.4549 26.944C70.4043 26.5519 71.7514 26.3337 72.3896 25.5421C73.5398 23.9257 70.9518 22.8826 69.577 22.6866C68.2141 22.4388 66.8236 22.3167 65.5395 21.6361C64.2474 20.9962 63.0381 19.6054 63.6605 18.1924C64.2081 16.9274 65.7167 16.2357 66.7015 15.1668C68.2259 13.6872 68.0014 11.5751 66.9772 9.89216C65.3504 7.18088 63.0539 4.81359 60.3438 3.06032C58.7839 2.05423 57.0113 1.36624 55.1521 0.985252C46.3206 -0.775415 36.7643 1.43651 29.674 6.64454C21.0907 12.9289 15.5641 22.8012 13.1022 32.6255C11.6644 38.8433 11.6605 45.8231 15.3317 51.3788C21.8785 60.8257 34.2315 62.3423 44.5953 57.7705C50.8624 54.7744 56.3259 56.2798 62.6285 58.2328C65.0944 58.9023 67.8675 59.5644 70.3767 58.9948C74.4418 58.0294 78.0343 54.1714 76.6202 50.0176L76.6083 49.9843H76.6005ZM38.1194 53.4169C28.6025 53.4835 20.3265 46.4001 19.5741 37.4599C18.5539 27.7651 26.7078 18.836 37.1858 18.4403C44.7686 17.9964 52.2135 22.3093 55.2033 28.8563C60.6117 40.3339 51.5754 53.4465 38.1627 53.4169H38.1194Z" fill="white"/>
</g>
</mask>
<g mask="url(#mask0_399_12199)">
<path d="M12.2001 45.7674C17.4351 57.356 32.3958 61.2694 40.408 56.6532C48.4201 52.037 48.9282 51.5265 55.349 51.7189C63.2902 51.9112 67.5562 58.5581 77.7625 51.9371C88.1735 45.1792 76.9274 60.5925 76.9274 60.5925L40.3213 63.1077L13.5433 58.4101C13.5433 58.4101 9.22605 39.1871 12.2001 45.7674Z" fill="#1BAB93"/>
<path d="M12.2001 45.7674C17.4351 57.356 32.3958 61.2694 40.408 56.6532C48.4201 52.037 48.9282 51.5265 55.349 51.7189C63.2902 51.9112 67.5562 58.5581 77.7625 51.9371C88.1735 45.1792 76.9274 60.5925 76.9274 60.5925L40.3213 63.1077L13.5433 58.4101C13.5433 58.4101 9.22605 39.1871 12.2001 45.7674Z" fill="url(#paint2_linear_399_12199)"/>
<path d="M61.6279 2.79001C68.0053 10.6612 65.0116 13.6092 63.2469 15.6658C61.4822 17.7224 63.1208 19.1982 63.7432 19.9676L68.4622 18.5731L73.591 7.69103L62.5497 0.914679C62.5497 0.914679 58.0827 -1.58576 61.624 2.78631L61.6279 2.79001Z" fill="url(#paint3_linear_399_12199)"/>
<path d="M72.5429 23.5408C72.5429 23.5408 72.8108 25.2201 69.6319 25.7971C66.4531 26.3741 68.1351 29.4109 68.1351 29.4109L72.5469 28.8598C72.5469 28.8598 73.1574 25.4975 73.2086 25.2977C73.2598 25.098 72.539 23.5408 72.539 23.5408H72.5429Z" fill="url(#paint4_linear_399_12199)"/>
<path d="M77.4314 37.4154C77.4314 37.4154 76.0685 38.9689 72.4642 36.6128C68.8599 34.2566 70.0614 40.1896 70.0614 40.1896L76.0173 41.0033L77.4314 37.4154Z" fill="url(#paint5_linear_399_12199)"/>
</g>
<path d="M53.6748 37.2305C53.7851 46.6701 43.6419 53.6683 34.0699 50.8017C29.4494 49.4812 25.6993 46.0524 24.1789 41.7432C23.6077 40.0972 23.2729 38.2551 23.4462 36.5129C23.6431 34.8522 24.9746 35.7473 26.0814 36.2688C27.4956 36.9457 29.1658 37.2009 30.7414 36.9827C35.1689 36.4649 38.2178 32.1372 37.1227 28.1239C36.8706 26.87 35.9686 25.6678 35.2674 24.6913C34.5544 23.626 35.3935 23.2821 36.4728 23.1304C45.383 21.8358 53.8245 28.786 53.6748 37.1972V37.2379V37.2305Z" fill="url(#paint6_radial_399_12199)"/>
<path d="M89.8754 25.3977C88.4534 27.9833 85.2587 26.574 82.848 26.0265C81.5678 25.6308 78.1369 25.0833 77.6445 23.9071C77.5696 23.1821 78.6608 22.6976 79.2162 22.2537C79.8937 21.7876 80.5436 21.255 80.9769 20.5781C82.4068 18.3033 81.2881 14.7746 78.5583 13.7352C77.7626 13.3986 76.703 13.147 75.9901 12.7476C74.8595 12.0781 75.9822 11.5565 76.9394 11.2384C79.4486 10.5763 82.4384 10.2915 84.8018 11.501C88.7291 13.5798 91.2856 21.4288 89.8911 25.3718L89.8754 25.4014V25.3977Z" fill="#12C6A3"/>
<path d="M83.821 39.716C82.789 40.5002 81.3945 40.2117 80.3625 39.5644C79.8228 39.213 79.2044 38.7839 79.1965 38.1514C79.2083 38.033 79.2556 37.9258 79.3304 37.8259C79.685 37.3783 80.7682 36.99 81.1149 36.2872C82.1036 34.6708 81.6072 31.6636 79.3265 29.2704C78.7238 28.6379 77.9793 28.0313 77.4751 27.543C76.9118 27.003 76.6597 26.6109 76.8961 26.3964C77.0773 26.2225 77.5775 26.1596 78.259 26.1855C80.7643 26.389 83.9156 26.9068 85.4164 29.0004C86.7556 30.9682 86.5351 34.0752 85.7945 36.3796C85.3809 37.5707 84.9082 38.8986 83.8486 39.6864L83.821 39.7086V39.716Z" fill="#12C6A3"/>
<path d="M82.8281 43.2338C83.1786 45.3902 81.1736 49.5959 79.0386 50.6094C78.0342 50.8202 79.1292 48.734 79.2986 48.1422C79.7674 46.7662 79.9683 45.1794 79.4562 43.2449C79.3459 42.4977 78.113 39.9825 79.2711 39.7716C79.8462 39.6866 81.0121 40.3154 81.7409 41.0774C82.3199 41.6618 82.7138 42.3979 82.8241 43.1931V43.2338H82.8281Z" fill="#12C6A3"/>
</g>
<defs>
<linearGradient id="paint0_linear_399_12199" x1="0" y1="89.8999" x2="99" y2="89.8999" gradientUnits="userSpaceOnUse">
<stop stop-color="#00EA80"/>
<stop offset="1" stop-color="#12C6A3"/>
</linearGradient>
<radialGradient id="paint1_radial_399_12199" cx="0" cy="0" r="1" gradientUnits="userSpaceOnUse" gradientTransform="translate(-2.51244 30.9018) scale(88.7401 83.3284)">
<stop offset="0.6" stop-color="#00DF82"/>
<stop offset="0.93" stop-color="#12C6A3"/>
</radialGradient>
<linearGradient id="paint2_linear_399_12199" x1="12.5979" y1="53.7533" x2="83.6238" y2="53.7533" gradientUnits="userSpaceOnUse">
<stop offset="0.36" stop-color="#12C6A3"/>
<stop offset="0.41" stop-color="#10BE9C" stop-opacity="0.8836"/>
<stop offset="0.5" stop-color="#0EAB8B" stop-opacity="0.6241"/>
<stop offset="0.62" stop-color="#098C70" stop-opacity="0.2916"/>
<stop offset="0.77" stop-color="#03624C" stop-opacity="0.2"/>
</linearGradient>
<linearGradient id="paint3_linear_399_12199" x1="68.5095" y1="-3.56096" x2="62.7364" y2="28.0822" gradientUnits="userSpaceOnUse">
<stop offset="0.48" stop-color="#12C6A3"/>
<stop offset="0.57" stop-color="#0FB393"/>
<stop offset="0.74" stop-color="#08856A"/>
<stop offset="0.85" stop-color="#03624C"/>
</linearGradient>
<linearGradient id="paint4_linear_399_12199" x1="72.7202" y1="20.5151" x2="69.1449" y2="32.3863" gradientUnits="userSpaceOnUse">
<stop offset="0.48" stop-color="#12C6A3"/>
<stop offset="0.57" stop-color="#0FB393"/>
<stop offset="0.74" stop-color="#08856A"/>
<stop offset="0.85" stop-color="#03624C"/>
</linearGradient>
<linearGradient id="paint5_linear_399_12199" x1="76.3757" y1="32.2" x2="71.6563" y2="42.9623" gradientUnits="userSpaceOnUse">
<stop offset="0.48" stop-color="#12C6A3"/>
<stop offset="0.57" stop-color="#0FB393"/>
<stop offset="0.74" stop-color="#08856A"/>
<stop offset="0.85" stop-color="#03624C"/>
</linearGradient>
<radialGradient id="paint6_radial_399_12199" cx="0" cy="0" r="1" gradientUnits="userSpaceOnUse" gradientTransform="translate(38.5369 37.212) scale(15.1537 14.2296)">
<stop offset="0.34" stop-color="#042222"/>
<stop offset="0.56" stop-color="#03342D"/>
<stop offset="1" stop-color="#03624C"/>
</radialGradient>
<clipPath id="clip0_399_12199">
<rect width="76.8" height="62.4" fill="white" transform="translate(12.7998)"/>
</clipPath>
</defs>
</svg>
